<svg xmlns="http://www.w3.org/2000/svg" stroke-linecap="round" viewBox="0 0 72 72"><g stroke="#EA5A47" fill="none"><path d="M33.2 18.3q0 0 0 0m0 0q0 0 0 0m-.2 2.2c.6-1.4 1-2.3 2.2-3.3M33 20.5l2.2-3.3m-2 4.7c1.7-1.5 1.7-3.3 3.4-5m-3.3 5c1.2-1.5 2-3.2 3.3-5m-3 6.4c.8-1.4 2.7-4.5 4.4-6.7m-4.4 6.7c.8-2 2.6-3.8 4.4-6.7m-4.2 8c1.7-1.7 1.7-3.8 5-7.5m-5 7.6c.7-1.6 2.3-3.1 5-7.6m-4.1 8.1c2.2-2.6 4-6.8 6.6-10m-6.6 10c2.2-2.8 3.2-5.5 6.6-10M35 26.6c1.6-2.2 4-5.1 8.8-13.4M35 26.6c1.4-3.6 3-6 8.8-13.4m-8 14a39 39 0 0 1 8.8-13.4M35.8 27a62 62 0 0 1 8.8-13.3M36 28.5c4.4-4.3 6.3-9.2 9.9-15m-10 15c2-2.5 4.7-6 10-15M35.8 30.7c4.4-3.4 5.2-8.3 11-16.7m-11 16.7c3-6.2 8-11.3 11-16.7M35 33.8a48 48 0 0 1 13.2-20M35 33.7a281 281 0 0 1 13.2-20M35.8 34.2c3.4-4.5 5.4-10 13.2-20m-13.2 20c5.3-8 10.5-15.5 13.2-20M36.7 34.9c3.7-8.5 11-13.1 13.2-20m-13.2 20c2.9-3.4 6.3-8.7 13.2-20m-13 21.4c5-6 8.1-9.6 13.3-20M37 36.2c3.4-4 6-7.9 13.2-20M37.8 36.7c5.3-5.9 9.4-13.4 13.2-20m-13.2 20c4.2-4.1 6.2-9.5 13.2-20M39.2 36.5c3.5-6 5.3-9.3 12-18.3m-12 18.3c1.5-3.4 5.5-7.8 12-18.3M40 37c3.6-3.1 5.2-6.2 11.6-17.5M40 37c4.9-6.5 8.5-12.7 11.6-17.5m-10.7 18c2.9-5.3 6.5-8.2 10.4-15.8M40.9 37.6c4.4-5.3 8-11 10.4-15.8m-9 15.6c3.3-3.6 6.6-9.7 9.8-15m-9.9 15c4-4.3 6-8.7 10-15M43 37.8c3.8-3.4 6.8-11 10.4-15.9M43.1 38c3.4-4.4 4.6-8.7 10.4-16M44 38.5a68 68 0 0 0 10.5-16M44 38.5c3-5.6 7-11.3 10.5-16M47 35.7C48.7 33 51.6 27 54.6 24M47 35.7c2.7-4.2 4.9-7 7.7-11.7M49 34.5c1.8-3.6 3.7-8.4 6.6-10m-6.6 10c3-3.5 5.4-7.7 6.6-10m-5.2 9.8c1-1 1.7-4.9 5.5-8.4m-5.5 8.4c1.8-3.5 4.1-5.7 5.5-8.4m-4.2 8c2.1-1 2.8-3.8 5-7.4m-5 7.5q2-2.3 5-7.5m-3 6.4 2.2-3.4M53.6 33l2.2-3.4" stroke-width="1.3"/><path d="M38.2 16.8c-.6-1.7-6.6.9-5.9 3m0 0c-1.4 1.8 1.6 5 3 6.7m0 0c1.1-1.9-3.8 5 1.8 9.7m0 0c3.3 1.6 9.4.1 11-2.1m0 0c1-.4 8.9-.3 8.4-6.5m0 0c-2 1.8-2-7.7-5.8-6.3m0 0c-1-.7 1.2-8.1-4-8.4m0 0c-3.6-3.4-7.7 4.7-8.5 4m0 0q0 0 0 0"/></g><g stroke="#B1CC33" fill="none"><path d="M14.1 27.5q0 0 0 0m0 0q0 0 0 0M15 31c.5-.8 1.3-1.3 2.8-2.8M14.9 31a13 13 0 0 0 2.8-2.8m-2.7 7c.5-1.7 1.5-3 5.5-5.7M15 35.3c2.2-2.6 4-4.9 5.5-5.8m-3.4 7.9q3.8-2.1 6.3-6.5M17 37.4c1.8-1.4 3.2-3.6 6.3-6.5m-5.5 10c1.4-2.5 4-4.1 7.7-8m-7.7 8c3.4-2.5 5.5-6.5 7.7-8M20 43c3.1-1.1 2.7-4.2 8.3-8.6M20.1 43c2-2.7 4.4-5 8.3-8.7m-5.5 10a22 22 0 0 0 6.3-6.4m-6.3 6.4c1.8-1.3 2.6-2.8 6.3-6.4m-3.4 7.8c.9-1.2 2-1.6 3.5-3.6m-3.5 3.6q1.8-2 3.5-3.6" stroke-width=".7"/><path d="M26 32.6c3.1 6 2.5 12.7 2.7 12.5m0 0c-1-2-6.4 1.3-11.6-5.3m0 0c-3.9-3.4-1.9-14-2.8-12.4m0 0c-.7 1.3 6.6 2.3 11.6 5.2m0 0q0 0 0 0"/></g><g stroke="#D22F27" fill="none"><path d="M44.4 38.3q0 0 0 0m0 0q0 0 0 0m.8.5c.2-.7.7-1 1-1.7m-1 1.7 1-1.7m-.6 3c.6-1.4 1.9-2.1 2.5-4.2m-2.5 4.3c.5-.7 1-2 2.5-4.3m-1.7 4.8c1.3-1.9 2.5-4.5 3.6-6m-3.6 6c1.6-2.3 2.3-3.9 3.6-6m-3.2 7.4c1.7-2.4 3-3.2 5.1-8.6m-5.1 8.6c1.7-2.6 3.3-4.6 5.1-8.6m-4.3 9c3.4-3.7 3.9-6.5 6.2-10.2m-6.2 10.3c2-4 3.8-7.9 6.2-10.3m-5.3 10.8c.9-2 3.6-5.9 6.2-10.3m-6.2 10.3c1.1-2.8 3.2-5 6.2-10.3m-5.4 10.8c1-3.8 5-5.8 5.7-9.4m-5.7 9.4c1.8-2.4 3-4.8 5.7-9.4m-4.3 9c1.3-1.6 3.2-4 4.7-7.6m-4.7 7.7c1.8-2.4 2.9-4.9 4.7-7.7M52.6 42c1.4-2.6 1.9-4.4 3-5.2m-3 5.2 3-5.2M54 41.7c.5-1 1.7-2.3 2-3.4m-2 3.4q.3-1 2-3.4"/><path d="M44.4 38.2c1.6 3.3 1.3 3.5 3.5 4.6m0 0c1.8 0 5.6 2.5 5.1-.1m0 0c2.3.2 4-3.5 2.7-4.6m0 0c-1.7-1.4-2-4-2.1-5.4m0 0c-1.4 1-3.2 1.3-5 2.4m0 0c-1.7.5-2.8 1.7-4.2 3.1m0 0q0 0 0 0"/></g><g stroke="#D22F27" fill="none"><path d="M51.5 16.2q0 0 0 0m0 0q0 0 0 0m.2 1.4c.7-.7.9-1.7 1.8-2.5m-1.8 2.5 1.8-2.5M52 19q1.4-2.4 2.9-4m-3 4 3-4m-2.7 5.4c1.4-1.9 2.2-4 3.5-4.9m-3.5 4.9q2-3.1 3.5-4.9M53 20.9q2.6-2.5 3-4m-3 4c1-1 1.6-2.4 3-4m-2.2 4.6q1.1-1.7 2.4-3.2m-2.4 3.2 2.4-3.2M54.6 22c1.1-1.4 1.9-1.8 2.4-3.2M54.6 22l2.4-3m-2.1 4.6c1-.8 1.4-2 2.3-3.2m-2.3 3.2 2.3-3.2" stroke-width="1.4"/><path d="M52 20c-2 1.8-.9-1.5-.4-4m0 0c1.6-.4.9 0 3.1-1.3m0 0c.9 2 1.4 4.6 2.7 4.7m0 0c0 1.4.7.7 0 1.2m0 0c-1.2 2-1.6 1.7-3 2m0 0c-1-.6-1.6-1.8-2.4-2.5m0 0q0 0 0 0"/></g><g stroke="#EA5A47" fill="none"><path d="M39 22.7q0 0 0 0m0 0q0 0 0 0m1.8 2.7 1.8-2.4m-1.8 2.4 1.8-2.4m1.8 2.6q1.5-1.5 2.4-3.1m-2.4 3.1c.7-1 1.5-1.7 2.4-3.1" stroke-width="1.2"/><path d="M48.4 22.7c1.9.7-3 4.7-4.7 3m0 0c-4.3-1.2-4.2-2.5-4.7-3"/></g><g stroke="#D22F27" fill="none"><path d="M37 22.8q0 0 0 0m0 0q0 0 0 0m.3 1.4c.2-.9.8-1 1.8-2.4m-1.8 2.4 1.8-2.4m-1.6 3.8c.9-1.7 2.8-3.4 3.6-4.9m-3.6 4.9c1-1 1.9-2.6 3.6-4.9M37.7 27c1-2.4 3.8-4.2 4.2-5.7M37.7 27c.7-1.3 1.8-2.1 4.2-5.7m-4 7c.8-1 1.5-3 4.8-6.4m-4.8 6.5c1.5-2 2.8-3.3 4.8-6.5m-4 7c.8-1.6 3.6-3.5 5.4-7.2M38.7 29c2.3-3.2 4.4-5.6 5.4-7.3m-4.6 7.9c.8-2.8 3.8-4.8 5.4-7.3m-5.4 7.3c2.1-2.8 3.4-4.9 5.4-7.3m-4.6 7.8c.6-2.2 2.4-5.3 6-8m-6 8c1.3-2.3 3-4 6-8M41 30.7a31 31 0 0 1 6-8m-6 8 6-8m-5.2 8.6c1.3-3 4-6 6-8m-6 8c2.7-2.8 4.4-5.8 6-8M42 32.7a18 18 0 0 0 6-8m-6 8c1-1.2 2.5-3.8 6-8m-4.6 7.8c1.5-1 2-3.8 5.4-7.2m-5.4 7.2c1.5-2.7 3.8-5 5.4-7.2m-4 7c.7-1.8 2.8-3.3 4.2-5.6m-4.2 5.6c1-1.5 2-2.7 4.2-5.6M45.7 33c.4-.5 2.3-1.8 4.2-5.6M45.7 33l4.2-5.6M47 32.7c1.3-1.3 1.2-2 3-4m-3 4q1.6-2.4 3-4m-1.6 3.8q1.8-1.9 2.4-3.2m-2.4 3.2 2.4-3.2" stroke-width="1.4"/><path d="M50.5 31.2c-1.4 1-1.4.5-2.3 1.3m0 0c0 2.3-2.3-.6-3.5.3m0 0c-3.4-.4-3.8.1-5.5-2.7m0 0c-1.8-1.6-3-1.5-2.7-4.8m0 0c-1.2 1.8 1.6-.5 0-.1m0 0q1-1.1 1.4-3.4m0 0c0-.6 2.3-1 2.5-1m0 0c2.5.6 3 .4 3.5.2m0 0c2-.2 3.7 1.8 5 3.5m0 0c1.9-.4 1.8 5 1.9 5.1"/></g><g stroke="#EA5A47" fill="none"><path d="M40.4 20.5q0 0 0 0m0 0q0 0 0 0M40 24c.6-1.6 2.1-2 3.9-4.6m-4 4.6q.9-1.5 4-4.6m-1.8 5.1c1.1-1.4 3-3 4-4.5m-4 4.5c.8-1.4 1.8-2.3 4-4.5m-2.5 5.8c1.4-1.9 3-2.9 4-4.5m-4 4.5c1.6-1.2 2.7-3.2 4-4.5" stroke-width="1.5"/><path d="M39 22.8c.7.6.3 2 4.5 2.8m0 0c1.5.1 4.8-1 4.9-2.7m0 0v-.3m0 0c-1.3-2.8-1.8-2.2-4.8-3m0 0c-2.2-1.9-4.2 2.9-4.6 3.2"/></g><g stroke="#D22F27" fill="none"><path d="M43.3 22.6q0 0 0 0m0 0q0 0 0 0m.3 2.8a16 16 0 0 1 3.9-4.5m-4 4.5c.9-1.2 2.2-2.4 4-4.5m-1.1 4.3 2.6-3m-2.6 3 2.6-3m.2 2.8c.5-.4 1.2-1.6 2-2.3m-2 2.3 2-2.3" stroke-width="1.6"/><path d="M43.2 24.8c.7-.3-1.3-2.8 2-4m-2 4c1-2 .7-3.5 2-4m0 0c-.5-2.1 2.2-.2 3 0m-3 0c2.1-1.6 3.9-1.7 3 0m0 0c1.2 1.3 3.4 2.3 2.3 3.4m-2.4-3.4c-.4 2.8 2 0 2.4 3.4m0 0c1.7-1.2 1.2-.3 0 .6m0-.6c.8 2.2 2 2.3 0 .6"/></g><g stroke="#D22F27" fill="none"><path d="M43.4 23.5q0 0 0 0m0 0q0 0 0 0m.5 2.8c.4-.9 1.2-1.4 1.7-2.4M44 26.3c.5-.6.8-1.4 1.7-2.4m0 3.6c.5-1 1.8-2.4 2.2-3.3m-2.3 3.3 2.3-3.3m-.7 4.4c.3-1.8 1.4-3 3.5-4.9m-3.5 5 3.5-5"/><path d="M43.2 23.8c0 2-.8 4.3 2 4m-2-4c.4-.8 1 3 2 4m0 0c-.8.7 2 .6 3 0m-3 0c3-1.6 3.4-1.9 3 0m0 0c1 .6 1.3-.5 2.3-3.4m-2.4 3.4c3.3-.6 4.5-2 2.4-3.4m0 0c-1.7-1.8-1 1.2 0-.6m0 .6c-1 1-1-2.4 0-.6"/></g><path d="M49.9 30.4c-.6-1.3.6-1-2 1.3m0 0c-2.1-.4-2 .9-3.2.2m0 0c-.3 1.5-2.3-2-4.8-2.5m0 0c-1-.6-1.7-2.4-2.4-4.5m2.5-2.1c-.1-1.6 1-1.2 3.7-3m0 0c.4 1.9 4.9 0 3.7 3m2 2.2c1.7-.3-.1 2.3-2.6 2m0 0c.7 1.4-1-1.6-2-.7m0 0c.4 1.2 0-2.8-.6-3m0 0c-1.5.4-.6 1.5.2-.5m8.9-6.9c1-.8.7-2 3.2 1m0 0c-.5.6.6 1.1-.4 3.4M54.2 36c-.5 0 .7 3.2-1.7 5.9m0 0c-2.6 1.6-3 1.4-6-1.7m-8.3-24c-2 .9-5.3-.7-6.5 3.7m0 0c-2.4 2.8.5 4.7 3.1 7m16.1-6.1c3.8 1.7 6 7.6 5.8 8.8m0 0c-.2 5-4.4 4.1-8.2 4.7" stroke="#000" stroke-width="2" fill="none"/><path d="M50.9 20.8c1-2.3-2-7-4-8.6m0 0c-5-2.1-9-1.4-8.7 4M34.8 27c-3 5.4-2.4 10 3.2 10.5m-3.2-10.6C30.6 32 33 37.6 38 37.5m0 0c3.9 2.4 6.7 1.8 10.5-3.2M38 37.5c4.2 1.6 6.4 2.1 10.5-3.2m-22.5-2c3.5 6.4 1 11.4 2.7 12.5m0 0c1-.7-8.9.8-11.6-5.3m0 0c-3.5-6.6-1.6-12.7-2.8-12.4m0 0c-.4-.6 9-.5 11.6 5.2m0 0q0 0 0 0m11.2 8.6c-2.4 5.3-6 11.8-5.8 20.7M37 40.9c-4.2 2.9-9.3 8.5-5.8 20.7" stroke="#000" stroke-width="2" fill="none"/></svg>