<svg xmlns="http://www.w3.org/2000/svg" stroke-linecap="round" viewBox="0 0 72 72"><g stroke="#92D3F5" fill="none"><path d="M19.2 18.8q0 0 0 0m0 0q0 0 0 0m-6 14.3c7.4-9.6 10.9-17.5 15.3-19.7M13.1 33c6.6-7.9 12.5-14.7 15.4-19.7m-16 26.9c5.1-8.4 11.7-15.9 21.6-27.6M12.6 40.3c7.7-8.9 13.3-17.9 21.5-27.6M14 45.1c7-9.6 14.4-15.1 25-32.3M14 45.1C21.8 34.3 31.9 23 39 12.8M16.4 48.4c7.3-7 10.2-14.5 27.1-34.7m-27 34.7c7.3-10 13.8-18 27-34.7M19 51.7c6.3-10 15.3-19.1 28.3-36.3M19 51.6c8.8-9.8 16.5-20.7 28.3-36.2M21.5 54.9a321 321 0 0 1 29-37m-29 37c8.4-13 19.6-24 29-37M24.6 57.2c7.8-10.9 19.1-25 28.9-37m-29 37c8.4-10.2 16.2-20.4 29-37M28.4 59c7.8-10 12.8-17.7 27.7-35.5M28.4 59c6.3-7.7 12.1-14.5 27.7-35.5M32.8 60c6.4-10 17.6-21.5 25.9-33.1m-25.9 33c8.8-10.3 16.2-22 25.9-33M37.8 60c8.3-11 16.5-21.8 21.5-27.6M37.8 60c4.7-7.4 12-14.4 21.5-27.6M44 58.5A149 149 0 0 0 60 38M44 58.5C49.5 51 56 45 60 38" stroke-width="1.6"/><path d="M36 12a24 24 0 0 0-24 24m0 0a26 26 0 0 0 24 24m0 0c12-.7 25.8-11.2 24-24m0 0c-1.6-14.2-10.2-25.8-24-24m0 0q0 0 0 0"/></g><g stroke="#FFF" fill="none"><path d="M14.5 33.8q0 0 0 0m0 0q0 0 0 0M12 38.6q1.5-1.5 3-2.7m-3 2.6q1-1 3-2.6M11 42c.9-1 3.6-2.4 5.4-4.5M11 42c1.5-1.6 3.1-2.8 5.3-4.5m-5.5 7.3c.9-.2 3.6-1.9 6.8-5.8m-6.8 5.8 6.8-5.8m-6.3 8c2.9-1.7 4.4-4.5 6-5.2m-6 5.2c1.9-1.6 4.5-3.5 6-5.2M12 49.2c1.6-1.6 4.4-3.1 5.3-4.6M12 49.2c1.6-1.8 3.9-3.1 5.3-4.6m-4.8 6.7c2-1.3 3.2-3 4.6-3.9m-4.6 4q2.2-1.6 4.6-4m-4 6.1c.4-1.1 2-1.8 4.5-3.9m-4.6 4 4.6-4M14.4 55c.4-.4.4-.5 1.5-1.3M14.4 55l1.5-1.3" stroke-width=".9"/><path d="M11.7 36.3c.6 2.3-1.6 2.8-1.1 5.5m0 0c-1 5.1.3 10.6 3.2 13.8m0 0c-.3 1.2-.1 1.7 1 0m0 0c.9-4.3 2.3-8.7 3.2-13.8m0 0q0 0 0 0m0 0c-1-5.2-.7-8.7-3.7-7.8m0 0c-2.7-1.6-1.2 0-2.6 2.3m0 0q0 0 0 0"/></g><g stroke="#FFF" fill="none"><path d="M54.8 36.2q0 0 0 0m0 0q0 0 0 0M54 42c1.2-1.6 3-3.3 4.9-6.4M54 42c1.7-2.9 3.9-4.9 5-6.4m-4.4 10.6c1.6-1.7 2.6-5.3 6.1-8m-6.1 8c1.7-2 3.4-4.3 6.1-8m-5.6 12.2c2.7-2.4 4.8-7 6.1-8m-6 8c2-2.4 4-5.7 6-8m-5 11.4c.7-.8 1.4-2.5 3.7-4.8m-3.6 4.8c1.1-1.4 2.6-3.1 3.6-4.8" stroke-width=".8"/><path d="M54.7 36.3c.7 1 .5 5-1.1 5.5m1-5.5c.8 2-2.6 1.6-1 5.5m0 0c-1.3 4 3 9.3 3.2 13.8m-3.2-13.8c1 3.6 2 10 3.2 13.8m0 0c1.2 1.3 1.2-.4 1 0m-1 0c-.9-1.2.9-.3 1 0m0 0c1.9-2.7 3.6-9.4 3.2-13.8m-3.2 13.8c3-3.8 1.2-8.8 3.2-13.8m0 0q0 0 0 0m0 0q0 0 0 0m0 0c-.5-2.8-2.7-9.7-3.7-7.8m3.7 7.8c1.4-3.7-.5-8-3.7-7.8m0 0c0-1.3-.6-1-2.6 2.3m2.6-2.3c-2 1.7-.5.7-2.6 2.3m0 0q0 0 0 0m0 0q0 0 0 0"/></g><g stroke="#FFF" fill="none"><path d="M21.5 52q0 0 0 0m0 0q0 0 0 0m-.4 4.4c1.4-2 2-3.8 3.2-5m-3.2 5c1-1.1 1.6-2.8 3.2-5m-2.5 7.8c1.1-2.2 2.3-5.2 3.6-6m-3.6 6c.6-1.6 1.8-2.8 3.6-6M23 61.1c1.5-1.4 2.6-3.2 4.1-6.8M23 61c1.6-2.4 3.1-5.4 4.1-6.8" stroke-width="1.1"/><path d="M21.4 52.2c-2 0 .1.1-.8 3m0 0c1.1 4.4.4 5.3 2.3 7.3m0 0c1.7-1.4-1 .3.6.2m0 0c1.6 0 1.1-.5.1-.2m0 0c2.6-1.2 3.2-5.5 2.4-7.3m0 0c-1.1-3.5-2.8-5.6-2.7-4.2m0 0c.5-1.4-2.7 1-2 1.2m0 0q0 0 0 0"/></g><g stroke="#FFF" fill="none"><path d="M47.5 52q0 0 0 0m0 0q0 0 0 0m-.3 4.4c1.3-1.5 1.5-2.6 3-5.1m-3 5.1c1.1-1.6 1.8-2.9 3-5.1m-2.4 7.9c1.5-1 1.7-3.4 3.6-6m-3.6 6q1.6-3.2 3.6-6M49 61c1-1.1 1.4-2.4 2.6-4.3M49 61c.7-1.4 1.9-2.8 2.6-4.3" stroke-width="1.6"/><path d="M47.4 52.2c-2.5.2 1.1 3.4-.8 3m.8-3c1 .4-.2 0-.8 3m0 0c.6.6.1 6.5 2.3 7.3m-2.3-7.3c-.3 3.4.4 5.2 2.3 7.3m0 0c1.7-1.8 2 .5.6.2m-.6-.2c-.2.5.1-1 .6.2m0 0c1.6-1-1.5.6.1-.2m-.1.2c.9-1.8 1.5 1.5.1-.2m0 0q2.9-4.8 2.4-7.3m-2.4 7.3c0-3 1.2-3.1 2.4-7.3m0 0c1-3-1-2.4-2.7-4.2m2.7 4.2c2-1.8 1-5.6-2.7-4.2m0 0c.4-1-.8.7-2 1.2m2-1.2c-2.6 0-.5 1.3-2 1.2m0 0q0 0 0 0m0 0q0 0 0 0"/></g><g stroke="#FFF" fill="none"><path d="M23.7 43.8q0 0 0 0m0 0q0 0 0 0m.2 1.4c.8-1 1.3-1.4 2.5-3m-2.5 3c.6-1 1.6-1.7 2.5-3M24 46.5c1.8-2 2.1-3.5 3.8-4.6M24 46.6c.7-1.4 2-2.5 3.8-4.6m-3 5.3a21 21 0 0 0 4.4-5.5m-4.4 5.5c1.1-1.6 2.8-3 4.4-5.5M25 48.7q2.1-3 5.6-7m-5.6 7 5.6-7m-4.9 7.6c.8-2 3.2-3 6.3-7.8m-6.3 7.8 6.3-7.8m-4.9 7.6c2.1-1 3-3.7 5.7-7m-5.7 7c1.5-1.7 3-4 5.7-7M28.5 49c1.6-2.6 4.5-3.8 5.7-7m-5.7 7c1.1-1.1 2.6-2.8 5.7-7M30 49c2-2.4 2.1-2.9 5.7-7M30 49c1.7-2 4.2-4.7 5.7-7m-4.2 6.8c1.3-1.5 3.1-4.3 5.6-7m-5.6 7q3.3-4.4 5.6-7m-4.9 7.6c1-2 2.7-4 6.3-7.7m-6.3 7.7c2-2.3 3.6-5 6.3-7.7m-4.9 7.6c1.3-.6 2.4-3.4 5.7-7m-5.7 7c1.7-1.3 2.4-3.6 5.7-7M35 49.1c2-3.2 4.5-4.6 5.7-7M35 49c2-2.3 3.2-4.7 5.7-7m-4.2 6.8c2.1-2.1 3.1-3.5 5.6-7m-5.6 7c1.2-1.8 2.8-3.9 5.6-7m-4.9 7.6a32 32 0 0 1 6.3-7.7m-6.3 7.7c2.2-2.2 4-5 6.3-7.7m-4.9 7.6c1.7-2.7 4.2-4.5 6.3-7.8m-6.3 7.8c1.8-2.5 3.5-4.5 6.3-7.8M40 49.2c1.4-1.5 4-4.8 6.4-7.7M40 49.2c2-1.5 2.6-3 6.4-7.7m-5 7.6c1.5-1.6 2-3.8 5.1-6.2m-5 6.2c1-1.3 2.7-3 5-6.2m-3.6 6c.6-1.3 1.7-2.9 4.4-5.4M42.8 49c1.2-1.8 2.4-2.6 4.4-5.5m-3.7 6c.9-1.5 2.5-2.1 4.4-5.3m-4.4 5.4a17 17 0 0 0 4.4-5.4m-3 5.2c1-2 2.9-3.4 3.8-4.6M45 49.4c1-1 1.7-2.1 3.8-4.6" stroke-width="1.2"/><path d="M44.5 49.3c-5.7-1-9.2 1.8-17 0m17 0c-5.4.6-10.4-.6-17 0m0 0c-3.6-1.7-5.3-1.9-4-4m4 4c-1-1.8-3.1-4-4-4m0 0c1-2.7 3.6-4.7 4-4m-4 4c-1.5-3.3 4-6 4-4m0 0a48 48 0 0 1 17 0m-17 0c3.5.3 7.2.5 17 0m0 0c3.9 0 5 1 4 4m-4-4c2.9 1.2 1.8.3 4 4m0 0c-1.2 2-2.7 5.8-4 4m4-4c1.7 4.2-2 5.8-4 4m0 0q0 0 0 0m0 0q0 0 0 0"/></g><g stroke="#FFF" fill="none"><path d="M13.4 19q0 0 0 0m0 0q0 0 0 0m-.5 5c4-6.2 9-8.9 12.1-13.4M13 24c3.8-3.4 7.1-7.8 12-13.3M13.1 28.2c5.3-7.2 12.6-15.8 18.2-20m-18.2 20c6.8-6.4 13.1-14.7 18.2-20m-6.5 11.6a52 52 0 0 0 10-11m-10 11c2.4-3.3 5.4-5.8 10-11m-6.5 11.6c1.4-3.4 6.6-7 9.5-10.4m-9.5 10.4c3.2-3.3 6-7 9.5-10.4m-5.2 10.2c3-1.6 4-5.2 8.7-9.6m-8.7 9.6c1.9-2.8 4.1-5.5 8.7-9.6m-1.1 5.7c1.4-1.1 1.7-1.5 4-4.4m-4 4.4 4-4.4m.2 4.2 3.4-3.7m-3.4 3.7c.8-.6 1.5-1.3 3.4-3.7m.2 4.2c1-1 1.6-2 2-2.2m-2 2.2c.5-.5 1-.8 2-2.2" stroke-width="1.7"/><path d="M48.3 16.8c2.7 0 2.8 0 1.7-2.8m0 0c-.7-5.5-10-3.6-9-4m0 0c-2-1.9-3.9 1.2-9-3m0 0c-6.8-4.5-12.6 7.5-12 7m0 0c1-.8-2.1 4.9-5 5m0 0c-1.7-1.4-6.2 2.9-3 6m0 0c-.3.8 0 8.7 6 2m0 0c5.9-4.4 1.1-9.9 10-7m0 0c7 .7 9.5 1 11-2m0 0c-.8-.5 4.4-2.8 7-2m0 0c-1.2-.4 3 2.3 2.3.8"/></g><path d="M43.8 57.6c-3.8 0-9.2.5-14.6.4M51 18.5C54.1 22 57 28 58.4 31m-44.8 0c-.6 1.1 0-.2.5-2m-2.4 7.3c-1.4 3-2.8 2.3-1.1 5.5m1-5.5c0 1.5-1.3 1.5-1 5.5m0 0c-.8 3.1-.5 10.4 3.2 13.8m-3.2-13.8c2.3 4.9-.8 9.1 3.2 13.8m0 0c1.6-1.3-.8-.6 1 0m-1 0c1.8-.5 2.6-.1 1 0m0 0c2-3.5 2.3-7 3.2-13.8m-3.2 13.8c1-6.4 1.1-7 3.2-13.8m0 0q0 0 0 0m0 0q0 0 0 0m0 0c-1.3-5-1-9.3-3.7-7.8m3.7 7.8c-1.2-4-.4-8.5-3.7-7.8m0 0c-1.2.2-1.7-.6-2.6 2.3m2.6-2.3c1-.3-2 .8-2.6 2.3m0 0q0 0 0 0m0 0q0 0 0 0m43 0c.3.6.7 1.8-1.1 5.5m0 0c.6 6.4-.1 9.4 3.2 13.8m0 0c-1.4.5 1.5 0 1 0m0 0c2-6.3 4.2-8.4 3.2-13.8m0 0q0 0 0 0m0 0c-1.8-5.4-1.8-6-3.7-7.8m0 0c-.3-1-.5 2.6-2.6 2.3m0 0q0 0 0 0M21.4 52.2c0-.6-1.5 3.2-.8 3m0 0q-1.4 3.9 2.3 7.3m0 0c-1-.1-1 .6.6.2m0 0c1.3-1.8-1-1.3.1-.2m0 0c1.7-2.4 4-4.6 2.4-7.3m0 0c1.5-1.4-.1-6-2.7-4.2m0 0c-1.5-1-1 1.1-2 1.2m0 0q0 0 0 0m26.1 0c-1.5 2.3-.8 1.3-.8 3m0 0c.7.6-.8 4.8 2.3 7.3m0 0c-.5.7-.4.5.6.2m0 0c-.7.5 1-1.2.1-.2m0 0c-.5-.7 4-3.5 2.4-7.3m0 0c1.8-4-1.7-3-2.7-4.2m0 0c1.2-.5-2-.2-2 1.2m0 0q0 0 0 0m-2.8-2.9c-5.6-1.5-9.5-.3-17 0m0 0c-2.5 1-3.8-2.7-4-4m0 0c-1.8-1.3 3-5.4 4-4m0 0c4.5.8 8.3-.5 17 0m0 0c3 .7 3.2 2.1 4 4m0 0c-1.8 2.6-2 2.6-4 4m0 0q0 0 0 0" stroke="#000" stroke-width="2" fill="none"/><path d="M28.4 41.8c0 2.5-1 5.1-1 7.6m.8-7.8a20 20 0 0 0 .1 7m5.2-6.3c-1 1.6.1 5-.1 5.8m4.2-6.1c.5 2.2.4 4.6.6 7m4.7-7.5c-.3 2.3.5 5.5.7 6.6m4.7-31.3q1.8.3 1.7-2.8m-1.7 2.8c.4-1.6 1-2.2 1.7-2.8m0 0c1.7-5.1-7.5-4-9-4m9 4c-1.2-4.3-9.5-6-9-4m0 0c-1.4 1.5-3.5 1.7-9-3m9 3c0 .8-5.2-2.1-9-3m0 0c-7.8-5-13 5.7-12 7m12-7c-7.8-2.5-10.4 9-12 7m0 0c-1.6-1-2.4 7.8-5 5m5-5c-.9 1.8-1.8 4.4-5 5m0 0c-.6-2-6 2.2-3 6m3-6c-2.9-.8-7 3.7-3 6m0 0c-.3.9-1 9 6 2m-6-2c1 0-.4 7.3 6 2m0 0c6-5 2-8.7 10-7m-10 7c5.1-3.9 2.4-8 10-7m0 0c6.1-.7 9.3-.8 11-2m-11 2c6.8 1.2 9.8-.3 11-2m0 0c-.4-4 4.8-3.2 7-2m-7 2c-1-2.8 7-2.5 7-2m0 0c1.4.2 1.5-.7 2.3.8M46 16c-1.7 2.7 2 1.3 2.3.8" stroke="#000" stroke-width="2" fill="none"/><g stroke="#000" fill="none"><path d="M24.1 30.8q0 0 0 0m0 0q0 0 0 0m1.9 2.6c1-1 1.7-2.9 2.9-4m-3 4c1-1 1.6-2.1 3-4" stroke-width="1.5"/><path d="M30 31c0 3 .6 3.3-3 3m0 0c-3.4-.4-3.5 0-3-3m0 0c1.7-2.3-.2-2.1 3-3m0 0c2.4 1.6 4.5 2.3 3 3"/></g><g stroke="#000" fill="none"><path d="M41.8 31.3q0 0 0 0m0 0q0 0 0 0m.8.5c.5-1.5 1.6-2.1 2.7-4.2m-2.7 4.2q1.6-1.9 2.7-4.2m-1.8 4.8q1.1-1.3 2.1-3.4m-2.1 3.4c.6-.5 1-1.3 2.1-3.4m-1.3 4c.2-.9 1.5-1.8 2.2-3.5M44.3 33c.3-.8.9-1.5 2.2-3.4m-1.9 4.8c.8-1.6 1.6-2.6 2.7-4.2m-2.7 4.2q1.1-1.4 2.7-4.2m-1.8 4.7q.2-1.2 2.7-4.2m-2.7 4.2c.7-1.2 1.6-3 2.7-4.2" stroke-width="1.4"/><path d="M48 31c-1.4-.2-3 4.5-3 3m3-3q-2.5 1.7-3 3m0 0c-2.9 1.5-3.8-2.7-3-3m3 3c-3 0-1.7-2.8-3-3m0 0c.3-3.2.5-3 3-3m-3 3c-1.4.6.2-2.1 3-3m0 0c-.3 1.1 2.4-.3 3 3m-3-3c2.2 2.3 5.2 1.7 3 3"/></g></svg>