<svg xmlns="http://www.w3.org/2000/svg" stroke-linecap="round" viewBox="0 0 72 72"><g stroke="#B1CC33" fill="none"><path d="M15.7 16.7q0 0 0 0m0 0q0 0 0 0m-5 10.2 6.6-7.5M10.7 27c1.8-2.8 4-4.8 6.6-7.5M9 33.4c1-.6 2.7-3 4.7-5.3M9 33.4q1.6-2 4.7-5.3m-5 10.3c1.5-1.8 2.4-3.6 3.9-4.5m-4 4.5q1.6-2.3 4-4.5m-3 8a11 11 0 0 0 3.3-3.8m-3.4 3.7c.7-.7 1.7-1.5 3.4-3.7m-2.5 7.2q.7-.6 2.7-3m-2.7 3q1.2-1 2.7-3m-1.7 6.5q1.2-1.1 2-2.2m-2 2.2q.8-1.1 2-2.2m-.5 5 2-2.3m-2 2.3 2-2.3m-.4 5c.2-.6.6-1 2-2.2m-2 2.2 2-2.2m-.4 5c.5-1 2-2.2 2.6-3M16 57c.7-1.3 1.8-2 2.6-3m-.4 5c1.1-.7 1.7-2.1 2.7-3m-2.7 3c.6-.7 1-1.3 2.7-3m.2 4.2q.3-.5 2-2.3m-2 2.3 2-2.3m.3 4.3 2.6-3m-2.6 3q1.5-2 2.6-3m-.4 5c.4-.8 1.6-1.5 2.7-3m-2.7 3c.7-.6 1.2-1.3 2.7-3m.9 3.5c.6-1.2 1.8-1.7 2.6-3m-2.6 3q1.3-1.7 2.6-3m1 3.5c1-1 1.3-2.1 3.3-3.8m-3.3 3.8 3.3-3.8m.2 4.3c1.1-1 2-2.6 4.7-5.3m-4.7 5.3a32 32 0 0 1 4.7-5.3m.2 4.3c1.3-1.5 2.2-2.3 4-4.5m-4 4.5c.8-1.3 1.9-2.3 4-4.5m1 3.5c2.5-.8 2.3-3 7.9-9m-8 9c1.9-2.8 4.1-5 8-9" stroke-width="2"/><path d="M55.2 56.8C43 66.4 27 67 15.5 56.8m39.7 0C44 69.4 26.3 66 15.5 56.8m0 0a26 26 0 0 1 0-39.8m0 39.8C2.8 46.5 3.7 28.2 15.5 17m0 0c.3.5 1.3.9 2.6 2.7M15.5 17q1.7 2 2.6 2.7m0 0C7.6 29.5 10.2 45 18.1 54m0-34.4C8 30 8.7 43.9 18.1 54m0 0c8 11.5 26.7 10.2 34.5 0m-34.5 0c10.1 8 25.6 8.2 34.5 0m0 0c.5.3 1 1.2 2.6 2.7M52.6 54l2.6 2.7m0 0q0 0 0 0m0 0q0 0 0 0"/></g><g stroke="#EA5A47" fill="none"><path d="M17.9 20q0 0 0 0m0 0q0 0 0 0m-5.5 12c3.2-3.8 5.3-5.7 7.9-10.3m-8 10.3c2.6-2.5 4-5.7 8-10.3m-9.3 17a51 51 0 0 1 11.5-15M11 38.7c3.2-5.6 7.5-9.7 11.5-15M12.3 42c.8-3 6.5-5.3 12.1-15.9m-12.1 16q6.8-10.5 12.1-16M12.8 46.3c3.3-7.2 8.9-12.1 14-18.2m-14 18.2c3.3-5.4 7.5-9.7 14-18.2M14.6 48.9c4.3-5.4 5.7-7.6 14-18.2m-14 18.2c6-6.9 11.8-14.3 14-18.2M16.4 51.6c3.9-4.3 7.4-9.4 14.6-19.1m-14.6 19c5.4-7 11.3-14.5 14.6-19M18.2 54.2c6.5-4.9 8.5-12.4 15.2-19.9M18.2 54.2c6.4-6.4 10.7-14 15.2-19.9M20.5 56c4.5-8.5 11.2-14.6 14.6-19M20.5 56a134 134 0 0 1 14.6-19M23 57.7c2.2-2.2 7.3-10.2 14.6-19M23 57.8c3.8-5 7-9.7 14.6-19M26 58.8c1.9-2.8 6-6.8 13.4-17.4M25.9 58.8c4.1-6.2 8.3-11.2 13.4-17.4M28.9 59.9c4.1-5 4.3-5.2 12.8-16.7M28.9 59.9c2.7-3.3 5.3-8.1 12.8-16.7m-9.8 17.7c2.8-5.5 6-9 12.2-15.9M31.9 61c5.5-6.4 9-13.1 12.2-15.9m-8.6 16.1c2.7-4.7 7.3-9.3 10.3-13.5M35.5 61.1c2.5-2.5 4-6.4 10.3-13.5m-6 13c3.9-4.5 4.8-7.6 8.4-11.1m-8.5 11c2.9-4.2 6-8.6 8.5-11m-3.7 9.7c2-1.4 2.5-2.4 5.5-7.1m-5.5 7.1c1.4-1.5 2.2-3.8 5.5-7.1m.5 4.2c.6-.9 1.7-1.7 1.9-2.4m-1.9 2.4q1-1 1.9-2.4"/><path d="M52.6 54.1c-9.7 10.5-25.5 11-34.5 0m0 0c-10.2-11-8.3-24 0-34.4m0 0c13.1 14.4 25 25 34.5 34.4" stroke-width="2"/></g><g stroke="#EA5A47" fill="none"><path d="M15.6 22.6q0 0 0 0m0 0q0 0 0 0m-4.3 12.6c2.4-3.3 3.2-6.1 6.3-10.2m-6.3 10.2C13.2 33 14 29.7 17.6 25m-5.8 15.2c3.2-5.6 6-9.7 8.4-13.6m-8.4 13.6c1.4-3.4 4.2-7.2 8.4-13.6m-7.4 17.7c3.5-6.6 8.4-10.4 9.4-15.3m-9.4 15.3c3-3 5.2-7.7 9.4-15.3m-8 18.6c1.7-4.8 2.4-5.5 10-16.2m-10 16.2c3.3-4.9 7.1-10 10-16.2M15.9 51c5-6.3 5.6-8.6 10.5-17M15.9 51c3.9-7 8.1-13.9 10.5-17m-8.5 19.4a60 60 0 0 1 11-17.9m-11 18c3.6-4.2 5.7-9 11-18m-9 20.3c4-8.2 8.2-14.7 11-17.8m-11 17.8c3.5-6 7-13.3 11-17.8m-8.4 19.4c5.5-8 6-14.5 10.5-17m-10.5 17c3.7-6.8 8.4-11.8 10.5-17M25 59a49 49 0 0 0 10.5-17M25 58.9l10.5-17M28 59.6c4.3-4.6 6-9.5 9.5-15.3M28 59.6c3.7-4.8 6.1-10.8 9.5-15.3m-6.4 16c5-5.7 6.3-12 8.4-13.6M31 60.3c2.4-5.8 6.5-10.9 8.4-13.6m-5.3 14.4c1.8-3.5 5.4-8.7 7.3-12m-7.3 12c2.5-4.7 5.6-9.1 7.3-12M37.8 61c2.8-3.2 4.4-6.8 6.3-10.2M37.8 61c1.4-2.2 3.5-4.9 6.3-10.2m-2.7 10.1c1.4-1.7 3.2-5.7 4.7-7.6m-4.7 7.6c1.8-2.5 3.8-5.7 4.7-7.6m0 5.8c.2-.5 1.3-1.7 2-3.4m-2 3.4c.8-1.2 1.3-2 2-3.4" stroke-width="1.4"/><path d="M49.5 56.7C41.1 64 27 61.3 18.1 54.1m0 0c-8.3-10.4-11-22.8-2.4-31.6"/></g><path d="M55.2 56.8c-12.2 11.9-28 10.8-39.7 0m39.7 0C46 66 25 69.3 15.5 56.8m0 0C4.5 44 5.2 27 15.5 17m0 39.8C6.3 46 3.4 28.8 15.5 17m0 0c1.3.7 1.6 2 2.6 2.7M15.5 17l2.6 2.7m0 0C9 29.5 7.1 45 18.1 54m0-34.4C9 29 7.5 45.6 18.1 54m0 0c9.1 8 27 9.5 34.5 0m-34.5 0c9.7 11 24.1 8.2 34.5 0m0 0c.5.7.8 1 2.6 2.7M52.6 54c1 1 1.8 1.6 2.6 2.7m0 0q0 0 0 0m0 0q0 0 0 0" stroke="#000" stroke-width="2" fill="none"/><path d="M16.9 19.4c15.6 11 27.4 25 38 34.8m-5.4 2.5a26 26 0 0 1-31.4-2.6m0 0a23 23 0 0 1-2.4-31.6" stroke="#000" stroke-width="2" fill="none"/><g stroke="#000" fill="none"><path d="M30.7 48q0 0 0 0m0 0q0 0 0 0" stroke-width="1.4"/><path d="M33 45.7c1.9-1.1-1.8-.8-.6 1.8m0 0c-2 .8-2-.6-1.8.6m0 0c-.4 1.3-2-1.4.6-1.8m0 0c-1-2.4 1.5-.2 1.8-.6m0 0q0 0 0 0"/></g><g stroke="#000" fill="none"><path d="M43.1 54.7q0 0 0 0m0 0q0 0 0 0" stroke-width=".8"/><path d="M45.7 52c-1.3 1.9-1.3 1.7-.6 1.9m0 0c0-.6-1.9 2.8-1.7.6m0 0c1.1-.4-1.2-1 .6-1.8m0 0c1-2.5.1-1 1.7-.6m0 0q0 0 0 0"/></g><g stroke="#000" fill="none"><path d="M32.9 53.8q0 0 0 0m0 0q0 0 0 0" stroke-width="1.5"/><path d="M33 53.7c-.3 1.2-.7-.4-.6 1.8m.6-1.8c0 1 2.3 3.1-.6 1.8m0 0c-.7-1.1.3 2.5-1.8.6m1.8-.6c.6 2.5-1.3.9-1.8.6m0 0c-1.5-1.8-1.5-.5.6-1.8m-.6 1.8c-1.8.1-.6-.5.6-1.8m0 0c1.8 1.2 3-2.3 1.8-.6m-1.8.6c-1 .7-.6-3.1 1.8-.6m0 0q0 0 0 0m0 0q0 0 0 0"/></g><g stroke="#000" fill="none"><path d="M24.6 42q0 0 0 0m0 0q0 0 0 0" stroke-width=".6"/><path d="M27 39.7c-.7-1.3-1.1.9-.6 1.8m0 0c-.7.2.2-.6-1.8.6m0 0c1.6 1-1.8-2 .6-1.8m0 0c.6 0 1.7-1.7 1.8-.6m0 0q0 0 0 0"/></g><g stroke="#000" fill="none"><path d="M18.3 29.3q0 0 0 0m0 0q0 0 0 0" stroke-width="1.4"/><path d="M20.6 27c.3-1.6-1.2 2-.5 1.8m0 0c1 1.5-2 1.9-1.8.6m0 0c-2.4 1.1-.5-2.8.6-1.8m0 0c.5-1.3 2.4-1.3 1.7-.6m0 0q0 0 0 0"/></g><g stroke="#000" fill="none"><path d="M16.4 42.4q0 0 0 0m0 0q0 0 0 0" stroke-width="1.5"/><path d="M19 39.7c-1.4-.2 1.4-.4-.5 1.8m0 0c-2.6 1.6-.2-1-1.8.6m0 0c-.7 0 1-1.4.6-1.8m0 0c1 .7.5-.8 1.8-.6m0 0q0 0 0 0"/></g><g stroke="#000" fill="none"><path d="M21 51.5q0 0 0 0m0 0q0 0 0 0" stroke-width="1.2"/><path d="M23.5 48.9c.1-.7-1.8 2.2-.6 1.8m0 0c-1.4 2.6-2.8 1.4-1.8.6m0 0c-1.8-1.2-1.6-2.6.6-1.8m0 0c2.4-.3 1.9-2.4 1.8-.6m0 0q0 0 0 0"/></g></svg>