<svg xmlns="http://www.w3.org/2000/svg" stroke-linecap="round" viewBox="0 0 72 72"><g stroke="#FCEA2B" fill="none"><path d="M9.6 29.8q0 0 0 0m0 0q0 0 0 0m3.2 2.6q-.2-.9 1.7-3.4m-2 3.7c.8-1.2 1.1-2.2 2-3.5m.7 6c.9-1.7 1.5-3 3.6-6m-3.1 6.7 3.6-7.5m-.8 10.2c1-4.5 3-7.4 7-11.2M18.4 38c1.8-2.7 2.7-4.9 6.5-10.3m-2.6 13.8c1.5-6 6.7-13.1 14-26m-15.2 26c5.8-7.4 8.7-15.3 17-28M22.7 48C26 41.6 32 35 38 16.5m-17 31c7.4-11.7 15-22.6 19.5-29.8M18.2 59.8c8.7-11.3 14-19.4 24.1-37.6M20.4 59.7c4.5-9 11.8-18.7 22.2-38.1m-16.4 37q4.4-12 19.4-30.6M25 59c3.6-7.6 9.3-16 19.5-33M30.1 54c7.5-10.5 15.5-20.6 16.5-26M31.9 56c6-10.6 11.7-21.4 16.3-28.7M39 54.7a76 76 0 0 1 12-23.9M37.4 53.4c5-6.7 8.9-14.2 14.6-25.4M41.7 56c2.7-11.4 8.4-16.3 15.9-27.8M41.3 55.7c3.1-5.6 5.2-10.9 14.4-25.6M44.6 56.4c.7-1.7 3-3.1 6.5-8.5M45 56.7c1.2-3 2.8-5.8 4.8-9.5M57.6 36a21 21 0 0 1 2.2-5.6m-2.5 5c1-1.5 1.4-2.6 3-4.9M48.3 59c.6-2 2-4 2.5-5.6m-2.6 6c.7-2 1.9-3.4 2.7-5.1m.6 7 .6-1m-.6.8q.2-.1.6-.8" stroke-width="1.9"/><path d="M35.6 10.7c-2.2 6.6-5 10-7.5 17.8m.3-.3c-3.8-1.7-9.9.1-19.3 2.6m1.3.5c3.9 3 5.7 7.4 11.2 12m2.3-.4c-1.4 6.8-4.9 11.4-6.1 18.6m1-2a76 76 0 0 0 16.6-8.1m.7.3c4 3 5.5 3.8 16.8 9.6m.3 1.4c-1.6-7.5-1.3-12.7-2.5-18.6m-1.1-2c1.2.1 6.6-2.7 14.8-10.6M64 30c-5.3-1.8-13-2.6-20.9-1.3m1-1.4c-.4-4.3-5.6-10.7-8.9-18.5"/></g><path d="M35.6 10.2c-2.2 4.5-6 10.4-9 18.7m2.5-2.1c-7.8 3.1-15 1.6-18 3.1m0-1.6c2.4 4.8 8 9.5 11.2 15.1m-.2-1.2c-2.2 5.8-.6 14-2.7 17.7m1.4 1.2c.5-.6 4.6-5.3 16.8-7m.2-3.1c4 4.3 8.4 8.5 15.6 10.5m-2-1.6c1.7-2.3-2.4-8-3.5-17.6m.5-.2c4.7-1.5 9.4-7.9 14-11.5m-.4 1c-2.6-2.7-9.3-4.3-17.4-2.4m.2-2c-3.7-2.5-2.7-5.4-9.7-14.8" stroke="#000" stroke-width="2" fill="none"/></svg>