<svg xmlns="http://www.w3.org/2000/svg" stroke-linecap="round" viewBox="0 0 72 72"><g stroke="#F4AA41" fill="none"><path d="M11.8 25.4q0 0 0 0m0 0q0 0 0 0M8.1 35c4.3-6.2 12.8-12.4 14-18.3M8 35.1c3.9-4.1 7.5-8.6 14-18.3M9.3 38.5A88 88 0 0 1 28.1 14M9.3 38.5c6.4-7.9 12.8-17.3 18.8-24.6m-17.6 28c5.8-11.3 15-20.7 22.4-29.4M10.5 42c8.8-10.6 15.4-20.7 22.4-29.4M11.7 45.4C18.2 36 24.7 30.2 37 12M11.7 45.4C18 36.8 25.4 27.7 37 12M13.4 48c9.4-14.3 23.2-26.6 27.3-35.8M13.4 48c11-13.9 21.2-27 27.3-35.8M15.8 49.8C23.8 35.7 36 24.4 43.1 14M15.8 49.8C22.6 41 28.6 32.5 43.1 14M20.6 48.4C27.5 35.8 37.4 25.7 46.1 15M20.6 48.4c6-8.3 11.6-15.5 25.5-33.4M22.4 51c7.8-11 16.7-22.3 26.7-35M22.4 51C31.2 38.8 40 27.7 49.1 16M24.2 53.7c6-6.2 12.2-17.8 27.3-35.8M24.2 53.7c6.3-9.8 13-19.2 27.3-35.8m-25 37.6c8.8-15 19-26.4 28-36.6m-28 36.6c7.9-9 14.8-19.3 28-36.6M30.2 55.7C36 45.3 46 36.8 56.9 20.7m-26.7 35c7-10.4 15.3-19.4 26.7-35m-23.7 36c7.4-12.6 20.2-23 25.4-33.4M33.2 56.7c8.8-12.5 19.2-25 25.4-33.4M36.2 57.7c7-9.6 17.5-23.3 24.2-31.8M36.2 57.7c6.1-8.3 14.6-17.9 24.2-31.8m-20 31.3c3.4-8 8.4-11.2 21.2-27.9M40.4 57.2c5.7-6.9 11.3-15.7 21.2-27.9M45.2 55.8C54 46.3 61 37.1 63.4 32M45.2 55.8A283 283 0 0 1 63.4 32m-9.2 16.9c3.4-2 6.2-6.6 8.5-11.1m-8.5 11c3-4.2 6-6.8 8.5-11" stroke-width="1.8"/><path d="M24.5 15.2C23 15 22 16 19.4 17m5-2c-1.3.7-2.5 1.3-5 2m0 0c-1.4 3-3.2 3.9-7.4 8m7.3-8L12 25m0 0c-2 4.4-3.2 8.6-4.1 10.5M12 25c-1.3 2.5-1.6 5-4 10.5m0 0c.5 1.8.5 4 1.3 5.3M8 35.5c0 1.4.5 2.8 1.3 5.3m0 0c.7 2.6 3.4 8 7 9.3m-7-9.3c3.2 2 5.3 7.2 7 9.3m0 0c.5-.7 2-1.7 2.7-2.6m-2.7 2.6 2.7-2.6m0 0c1.4.8 3.8 6 10.7 9m-10.7-9c1.1 2 5 9.4 10.7 9m0 0c.2-.3 8.7 3 15.6-1m-15.6 1c-1.5-2.2 8.6 3.3 15.6-1m0 0c2 0 3-1.8 3.3-2.5m-3.3 2.6c2.6-2.5.5.3 3.3-2.6m0 0c1.7-4 4.2-4 4.6-5.2M48.6 53c2.3.1 5.3-4.8 4.6-5.2m0 0q0 0 0 0m0 0q0 0 0 0m0 0c-.2-.2-.3 2.2 1.6 1.8m-1.6-1.8c-1-.5 1.3 2.7 1.6 1.8m0 0 1.9-.1m-1.9 0h1.9m0 0c2.2-3 3.6-5.5 5-7.2m-5 7.2 5-7.2m0 0c1-1.3 1.4-3.7 2-5m-2 5c.6-1.3 1-2.1 2-5m0 0c.4-1.8 0-3.1 0-4.3m0 4.2c-.1-1.4.2-2.8 0-4.2m0 0c-.3-1.3-.6-2.7-2.2-5.7m2.2 5.7c-.5-1.6-1.2-2.9-2.2-5.7m0 0c-.9-1.7-2.6-4.8-4.8-7.4m4.8 7.4a68 68 0 0 1-4.8-7.4m0 0c1.4 2-1.8-4.7-8.2-3.9m8.2 4c-1.3 2-4.3-5-8.2-4m0 0c2-.9-4.7-5.3-11.8-4m11.8 4c-1.4.3-5.4-3.2-11.8-4m0 0c-3.9 1.9-5.2-1.1-12.2 3.2m12.2-3.3c-4.1 1.2-2.7 1-12.2 3.3m0 0q0 0 0 0m0 0q0 0 0 0"/></g><g stroke="#EA5A47" fill="none"><path d="M30.5 49q0 0 0 0m0 0q0 0 0 0m.3 3.1c.7-1.1 2-1.9 2.2-3.2M30.3 52c1-.8 1.5-1.1 3.1-3m-1.6 5.3q.7-3 6.5-6.7M31 54.1c2-1.8 4-3.6 6.2-6.4M32.9 56c1.2-2.1 3.8-3.4 6.2-6.2M32 56.6c2.8-3.1 5.2-5 6.7-7.4m-5.4 8.3c2.3-1.3 6.7-5.7 8.3-7.7m-8.4 8c2.3-1.6 4-4.8 8.7-9.4M33 58.8c1.5-1.2 5-3.3 8-6.2m-6.5 7.2c1.5-2.1 4.2-4.3 7.2-8m-5.2 8c1.1-1.2 2.3-1.8 4.8-3.8m-4.6 3.8q3.2-2.7 4.4-4.3" stroke-width="1.1"/><path d="M36.3 46.7c-1.2.5-2.2 1.6-3.6 2.4m0 .1-2-.1m-.4.1q-.1 1.7.9 3.6m-.3 0 .3 3.6m.3-.4q.4.5.6 2.6m.2-.4 2.8 1.7m-.2-.2q1.7.5 4.6-.2m-.1-.3q.6-.9.9-2m-.2-.5c.8-.7.3-1.3.9-3.8m.4-.3c.1-.4.2-1.9.7-3.2m0-.2-2.1.3m0 .2c-1.2-1.3-2.4-2.5-4.4-2.7m.4-.3q0 0 0 0"/></g><g stroke="#3F3F3F" fill="none"><path d="M32.8 36.6q0 0 0 0m0 0q0 0 0 0m-1.2 5.6a41 41 0 0 1 5.4-6.1m-4.8 5.2c.8-.9 1.8-1.6 4.9-4.5m-2.3 6.7c1.3-1.6 4-3 6.3-6.2m-6 5.4a30 30 0 0 1 5.8-5.2" stroke-width="1.5"/><path d="M32.8 36.6c-.8 1.6-1.4 3.5-1.8 4.4m-.2-.1q1.5.7 2.5.9m-.1.1q.4.1 1 .6m.5 0c.7.4 2.2 0 4.4.1m-.7 0q1.8-1.8 3-2.4m-.2 0q-.2-1.1-1.7-3.3m.3-.2q-3 .7-7 .7m-.3-.5q0 0 0 0"/></g><g stroke="#000" fill="none"><path d="M26.2 28q0 0 0 0m0 0q0 0 0 0m.4 2.7c.6-1 1.1-1.8 2.4-3.2m-2.4 3.2 2.4-3.2" stroke-width="1.5"/><path d="M29.5 30.1c-1.2-1.6-.1 2.8-2.7.7m0 0c.6-1 .4-3.8-.7-2.8m0 0c.3.6 0-2.3 2.7-.6m0 0c-.7 2 2.3 2.7.7 2.7m0 0q0 0 0 0"/></g><path d="M33.1 37c1.3 0 3.6.5 6.2 0m0 0s.4-1.2.9.6m0 0a8 8 0 0 1 1.1 2.7m0 0q-.5.1-2.1 1.2m0 0c-1.3.6-.5 1.8-1.5-.8" stroke="#000" stroke-width="2" fill="none"/><path d="M34.8 40.8c-1.9 1-1 .1-1.4.7m0 0-2.3-1m0 0c.2-1 .8-2.5 1-2.8m0 0c0-2.3 2.5.3 1-.7m-2.7 13c-.6-1.8.5 7.2 3 10m0 0c2.9.9 5 2.1 6.1-.3m0 0c0-1.3 4.4-4.5 1.8-9.7" stroke="#000" stroke-width="2" fill="none"/><g stroke="#000" fill="none"><path d="M44.6 27.7q0 0 0 0m0 0q0 0 0 0m1.6 2.8 2-2.3m-2 2.3 2-2.3" stroke-width="1.6"/><path d="M44.3 30.1c-.8.5 1.2 3 2.7.7m0 0c1-1.7 2.2-3.4.7-2.8m0 0c-.6-.7-2-3-2.8-.6m0 0c1 1-1.2 1.7-.6 2.7m0 0q0 0 0 0"/></g><path d="M25.6 42.8c-2.4 2.8 1.6 7.7 4.3 6.9m-4.3-6.9c.6 2.8 4.4 6.2 4.3 6.9m0 0c.8.8.8.6 3.7-.3m-3.7.3c-1 2.4 4.4-.5 3.7-.3m0 0q1-1 2.6-2m-2.6 2a12 12 0 0 1 2.6-2m0 0c.6.7 1.4 1 2.6 2m-2.6-2q1.2.7 2.6 2m0 0c.8 1.2 2.4 2.4 3.7.3m-3.7-.3c3.2.5 3.5-1 3.7.3m0 0c1 .5 4.4-3.5 4.3-6.9m-4.3 6.9c4.3 0 5-2.6 4.3-6.9M20 28.4c-1.8 6.4.6 14.8 0 15.3m0 0c.5 1.3.2.3 0 1.4m0 0q-.5 1.5-2 4.2m0 0c-.4 2.2-2.6 2.8-3.4.4m0 0C10 44.2 5.3 36.7 8.1 33m0 0c8.5-16.7 14.7-16.9 15.8-18m0 0c2-3.6 11.6-6.1 24.9.9m0 0c-1.9 1.9 10.2-2 14.9 17m0 0c1.3 6.2-2.2 12-6.6 16.6m0 0c.2.4-3.5 1.2-3.3-.5m0 0c-.6-1.2-1.3-2.2-2-4.1m0 0c-1-1.8-.3-.8-.1-1.4m0 0c-.8-.8 4.2-11.2.1-15.4" stroke="#000" stroke-width="2" fill="none"/><path d="M52.6 46.5c1.3 1-3.6 6.3-7.8 8.2m7.8-8.2c.3.4-5.3 7.8-7.8 8.2M19.4 47c-.3-1.1 3.5 7 7.8 7.6m9.3-7.3c-.5-.7 0-1.6 0-3" stroke="#000" stroke-width="2" fill="none"/></svg>