<svg xmlns="http://www.w3.org/2000/svg" stroke-linecap="round" viewBox="0 0 72 72"><path d="M34 16.3c.6 0 .8-.3 2-1m-8 10.1c-.4-.3-.7-.4-1.8-.7m1.6.8-1.7-1M37 35.6q-1-.8-2-1m10.5-7.8-1-1.6M34.6 28l.8-2m6.1-7.3q-.9-1-1-1.5M23.3 35.7q-.2-.7-1-1.4m1.2 1.7-1-1.9m6.3 5.9 2.2-.1M47.7 37c0-.8.7-1.4.9-1.7m-1.1 1.5 1-1.7M41 39.5q1.3-.6 1.7-1" stroke="#000" stroke-width="2" fill="none"/><g stroke="#A57939" fill="none"><path d="M13.8 39.7q0 0 0 0m0 0q0 0 0 0m-.7 3.5c.7-1.1 1.4-1.5 3.6-3.5M13 43.2c1.2-1.5 2.7-3 3.6-3.5m-1.5 4.2c2-1.1 2.8-2.7 4.3-4.2M15.2 44l4.3-4.2m-2.9 5.7c1-1.3 3.6-2.1 5.7-5.7m-5.7 5.7c2-1.7 3.4-3.7 5.7-5.7m-3.6 6.4c1-2.3 2.8-3.3 6.4-6.3M18.7 46c1.5-2.2 3.4-3.4 6.4-6.3m-5 7.7c2.6-1.6 4.9-4.2 7.9-7.7m-8 7.8c1.6-2.2 3.6-3.6 7.9-7.7m-5.7 8.4c3.6-3.3 4.7-4.9 8.5-8.4m-8.5 8.4c3.8-3.4 6.3-6.1 8.5-8.4m-7.1 9.8c1.5-1.9 5.8-5.2 10-9.8m-10 9.8c1.7-2.4 4.7-3.8 10-9.8m-8 10.6c3.3-2.3 6-4 10.8-10.6M25.8 50.4c2.9-1.8 5.5-4.9 10.7-10.6m-9.3 12c3-3.3 9.6-7.5 12-12m-12 12c3.5-3.8 6-5.9 12-12m-9.9 12.7c2-3.7 6-6.5 12.8-12.6M29.3 52.5c4.8-4.7 8.6-9.4 12.8-12.6m-11.4 14C35 49.5 41.5 45.5 45 40M30.8 54q6.8-7.5 14.2-14M33 54.7c4.8-1.3 4.5-7.3 14.9-14.8m-15 14.8a125 125 0 0 0 15-14.8M34.2 56.1c7.5-6.6 12.4-11.7 16.4-16.2M34.2 56.1c5.2-5 12-10.8 16.4-16.2M36.3 57c5.5-3.9 10-12 17.1-17m-17 17c3-4.5 7.6-7.4 17-17M42.7 53.4c5-4.7 8.8-10.5 13.6-13.3M42.7 53.3C46 50 49.6 46.7 56.3 40m-6.5 9c2-1.7 4-4 8.6-8.4M49.8 49c1.2-1.4 4-3.4 8.6-8.4m-1.5 4.2c1.6-1.3 3.1-2.3 3.6-3.5M56.9 45q2.2-1.8 3.6-3.5" stroke-width=".7"/><path d="M59 43.6c3.3-2.4 1.3-2.7 0-3.4m0 3.4c.1.8.5-3.4 0-3.4m0 0c-2.6.5-3.2-2-2 0m2 0c-2.2 1-1.1-.7-2 0m0 0c-5.4-1.6-10.2-1-21-.2m21 .2c-6 .3-15 .3-21-.2m0 0c-6.8-.3-18.5 2.1-21 .2m21-.2c-6.3-.2-13.6 0-21 .2m0 0c-.6-.1-3.1-.2-2.7.7m2.7-.7c-2 1.2-3.3 1.3-2.7.7m0 0c-2 2-1.5 1.8.7 2.7m-.7-2.7c.8 2.7-1.2 1.2.7 2.7m0 0c6 4.4 13 6 23 13.4M13 43.6C19.5 47.7 26 51 36 57m0 0c6.6-6 14.2-7.8 23-13.4M36 57c4.7-2.6 11.9-7.2 23-13.4" stroke-width="2"/></g><g stroke="#92D3F5" fill="none"><path d="M15.9 46.2q0 0 0 0m0 0q0 0 0 0m1.7 1 1-1.6m-1 1.7 1-1.7m.6 2.8c.9-1.1 1.2-2 1.7-2.5m-1.7 2.5q.6-.7 1.7-2.5m-.5 4.4c.8-1.2 1.8-2.5 2.1-3.3m-2.1 3.3c.3-1 .9-1.6 2.1-3.3m-1 5.2c.7-1.3 1.9-2.8 2.7-4.2m-2.7 4.2c.7-.9 1.2-2.2 2.7-4.2m-2.1 7c1.6-1.3 1.6-3.4 5.4-8.4M22.1 55c1.6-2.7 4.3-6.6 5.4-8.4m-4.9 11.2c2-3.5 2.7-6.7 6.6-10m-6.6 10c3-3.8 4.5-7.2 6.6-10m-6 12.7c2.6-4.5 6-7.2 9.3-14.2m-9.3 14.2c3.8-5.8 7-11 9.3-14.2m-8.7 17c1.3-4.9 6.6-8.3 11-16.7m-11 16.7c2.8-3.7 6.6-9.9 11-16.7M24.3 66c3.9-3.8 6.2-9.9 11.5-17.6M24.4 66c2-5.6 6.4-10 11.5-17.6M26 67.2c2.5-5.1 9.3-13 13.6-21M26 67.2c4.7-7.4 8.6-12.3 13.6-21M28.3 67.4c5-8.5 11-13.2 13.1-20m-13.1 20a116 116 0 0 1 13.1-20M30.5 67.6c2.8-5 5.2-9.4 13.7-21m-13.7 21a572 572 0 0 1 13.7-21M33.2 67c3-2.8 6.9-8.8 13.2-20.1M33.3 67.1c2.3-4.5 6.4-10.2 13-20.1M35.6 67.4c1.2-4 4-9 12.6-19.3M35.5 67.4c3.4-4.7 7.8-10.2 12.6-19.3M37.7 67.6c4.1-3.2 5.3-7.5 13.7-21m-13.7 21q4.7-7.5 13.7-21M40.4 67c2.9-6.4 7.4-9.4 13.8-20.9m-13.7 21c5.4-9 10.8-15.6 13.7-21M42.7 67.3c1.7-1.3 3.2-4.5 7.1-10.9m-7 10.9c1.6-3 3.2-5 7-10.9M45 67.5c1.5-1.4 2.3-3.5 4.4-6.7M45 67.5c1.3-1.3 2.1-3.6 4.4-6.7m-2.1 7 1-1.7m-1 1.7 1-1.7" stroke-width=".8"/><path d="M56 46c-5 1.4-7 11.1-8 21m0 0c-10.4-1.7-17.4 1.7-24 0m0 0c1.8-7-5.4-22.7-8-21m0 0c2 .2 2.8-.4 5 0m0 0c.4.5 1.1.9 3 2m0 0c.8-.8 2-.8 3-2m0 0 3 2m0 0 3-2m0 0q1.5.8 3 2m0 0c1.1-.2 1.8-1.3 3-2m0 0 3 2m0 0 3-2m0 0c.5.4 1.7.7 3 2m0 0 3-2m0 0c1.4.5 2.8.2 5 0"/></g><g stroke="#FFA7C0" fill="none"><path d="M15.2 31.9q0 0 0 0m0 0q0 0 0 0m.6 2.2c2.7-3.1 5.7-3.7 6.7-6m-6.7 6c1.1-1.7 3.3-3.3 6.7-6m-6.8 8.8c2-1.6 6-4.9 10.4-9.4M15.7 37c3.2-2.9 5.6-4.4 10.4-9.4m-9 10.9c3.3-1 3.4-5.5 11.8-10.7M17 38.4c4.2-4.8 9.2-8.2 12-10.7M18.2 39.9c5.6-3.4 7.6-6 13.4-12m-13.4 12c2.1-2.2 5.9-4.5 13.4-12M20.4 40.6c4.8-3.9 8.7-6.3 14.2-12.7M20.4 40.7C25.2 36 32.1 30.6 34.6 28m-12 13.5c3.9-3 6.3-4.2 15.5-14m-15.6 14c3-3.3 7.2-6 15.6-14M24.6 42.3c3.3-3.2 7.8-6 16.4-14.7M24.6 42.3c6.2-5 12-11.4 16.4-14.7M27.4 42.5C34 36.8 40.5 32 43.8 27.8M27.4 42.5c4.2-3.2 7-6.4 16.4-14.7M29.5 43.3c3-2.9 8.8-9 17.1-15.4M29.5 43.3c5.3-6.4 12.6-12 17.1-15.4M32.3 43.4c6.4-6 7.4-10 17.9-16m-17.9 16a88 88 0 0 1 17.9-16M35.9 42.9c4.7-4 9.6-8.8 16.3-14.7M36 43c3.3-4 7.3-7.6 16.3-14.7M38.7 43.1c3.7-3.8 7.4-7.8 14.1-12.7M38.8 43c3.6-3.5 6.4-6.1 14-12.7M42.3 42.5c3.7-1.9 5.5-4.9 11.9-10.7m-12 10.7c2.6-3 5.4-4.5 12-10.7M45 42.7c4.5-3.1 5.5-6.3 10.4-9.4M45 42.7c3.4-3.2 5.7-6 10.4-9.4m-6.8 8.9q3.2-1.8 7.4-6.7m-7.4 6.7 7.4-6.7" stroke-width="1.1"/><path d="M50 42c4.5-2.2 5.4-1.7 6-7m0 0c.6-1.6-1.6-5.6-3-4m0 0c-1-1-2.8-2-1.4-3.2m0 0c-1.1.8-31-2-31.6.2m0 0c-1.6-.3-1 2.3-2 2m0 0c-1.7-.7-4-1.1-3 4m0 0c-.6 8.2 8.8 6.3 13 9m0 0c2.5.2 5.5-.4 10-1m0 0c2.2-.7 4.7 1.7 12 0m0 0q0 0 0 0" stroke-width="2"/></g><g stroke="#FFA7C0" fill="none"><path d="M38.7 5.3q0 0 0 0m0 0q0 0 0 0M27 16.4q0 0 0 0m0 0q0 0 0 0m10.7-9q.7-.5 1.5-1.4m-1.5 1.3L39.3 6M21.7 22.4q0 0 0 0m0 0q0 0 0 0m3.8-3.3c3.9-5.7 10.8-7.7 14.5-12.3M25.5 19.1C30.7 16 34.7 10.5 40 6.8M20 25.1C28.6 16.5 36.6 11 40 8.2M20 25.1c6-3.8 10.7-10.3 19.8-16.9m-20 18.3c4.6-6.5 10.3-8 20.6-17.5M19.9 26.5c6.4-6 13.2-11 20.6-17.5M20.6 27.3c3.6-6.1 8.8-10.3 20.5-17.6M20.6 27.3c7.2-7 15.7-14.3 20.5-17.6M21.2 28c6.5-5.2 10.7-9 20.6-17.5M21.2 28c8-6.4 15.7-13.1 20.6-17.5m-20 18.3a91 91 0 0 1 19.9-16.9M21.9 28.8c4-4.3 9-8 19.8-16.9M22.5 29.5c6.2-6.2 14.6-12.8 19.8-16.8M22.5 29.5c5.3-4 10.6-10 19.8-16.8M24 29.7c4.6-5.1 11.9-8.3 19-16.3M24 29.6c6.4-4.7 14.2-12.2 19-16.2m-18.4 17c3.8-4 7.4-5.6 19-16.2m-19 16.2c8-7 14.7-12.6 19-16.2M26 30.5A96 96 0 0 0 44.3 15M26 30.5c6.3-6 13.4-11.5 18.3-15.5M27.4 30.6C30.5 28 38 21.3 45 15.7m-17.5 15 17.5-15M29.6 30.1c3.4-3.7 9.9-7 16.7-14.3M29.6 30.1c5.4-5.6 10.9-9.8 16.7-14.3M31 30.2c6.3-2.5 9.3-8.6 16-13.6M31 30.2c4.6-3.7 9.6-8 16-13.6M32.4 30.3c4.9-4 13.3-10 15.2-13m-15.2 13a90 90 0 0 0 15.2-13M33.8 30.5c3.9-4 11.3-10 13.7-11.6M33.8 30.4a65 65 0 0 0 13.7-11.6M35.2 30.5c3.6-3.2 10.3-8.7 13-11m-13 11c4.1-3.7 8.3-6 13-11M36.6 30.7c4.3-2.2 9.4-6 11.5-9.8m-11.5 9.8c2.8-3.3 5.2-4.6 11.5-9.8m-10 9.9c4.3-2.4 7.7-6.3 9.8-8.5M38 30.8c2.5-1.4 3.6-3.7 10-8.5m-7.8 8 9.2-7.8m-9.2 7.7c1.6-2.3 4.2-4 9.2-7.7m-7.8 7.9c2.2-2.8 6.3-4.4 8.4-7.2m-8.4 7.2 8.4-7.2m-7 7.3c2.3-1.3 4.1-3.2 7.7-6.5M43 30.5c2-1 3-2.7 7.7-6.5m-6.2 6.6c2-1.3 3.8-3 6.8-5.9m-6.8 5.9q3.4-3.7 6.8-5.9M46.6 30c1.7-1.1 3-3.7 5.3-4.5M46.6 30c1.8-1.3 3.7-3.4 5.3-4.5m-3.1 4c1.1-1.4 2.6-1.7 3.8-3.2m-3.8 3.2c1.5-1.2 2.8-2.6 3.8-3.2" stroke-width=".6"/><path d="M24 20.7c-3.9-1.6-2.9 2.7-4.5 4.3m0 0c1 3.8 1 6.8 10.2 5.4m0 0c3.1-.6 5.7 1.1 10.3 0m0 0c9.4-1.5 12.2-3.8 12.5-4.2m0 0c2-2.7-3.3-3.1-3.4-3.2m0 0c0-.9-.3-2-1.2-4.7m0 0c-2-2.5-5-2.7-6.8-7.3m0 0c-.8-1.3-.8-2-.2-.7m0 0Q40 8.3 39 5m0 0c1.3 8.1-11.3 5.8-12.7 12.2m0 0c.9 1.5 1.6 3-2.2 3.5m0 0q0 0 0 0" stroke-width="2"/></g><path d="M34 16.4c.5 0 .7-.3 1.8-.8" stroke="#61B2E4" stroke-width="2" fill="none"/><path d="M36.7 35.6q-.8-.9-1.6-1m10.4-7.8q-.2-.6-1.2-1.7m1.2 1.9-1-1.9" stroke="#5C9E31" stroke-width="2" fill="none"/><path d="M34.3 28c.7-.5.7-1 1-2" stroke="#FCEA2B" stroke-width="2" fill="none"/><path d="M41.3 18.7q-.5-1-1-1.4" stroke="#8967AA" stroke-width="2" fill="none"/><path d="M23.6 35.8 22.4 34m1 1.8-.9-1.7" stroke="#61B2E4" stroke-width="2" fill="none"/><path d="M28.8 40q1.4-.1 2.2.2" stroke="#E27022" stroke-width="2" fill="none"/><path d="M47.5 37c.2-.5.5-.8 1.2-1.8" stroke="#D22F27" stroke-width="2" fill="none"/><path d="M41 39.4c.5 0 .9-.4 2-.9" stroke="#FCEA2B" stroke-width="2" fill="none"/><path d="M39 5c-.4 6.6-12.2 7.8-12.7 12.2M39 5c-.5 8.3-11.8 8.5-12.7 12.2m0 0c-1.7.4 4.4.8 5.7 2.3m-5.7-2.3c-1.7 0 3 3 5.7 2.3m9.1-8.9c-1 2.8 5 4.5 6.8 7.7m-6.8-7.7c1.8 3.2 9 5.3 6.8 7.7m0 0c.4.9-6.1 6.6-11.3 4.4m11.3-4.4c-.4 3.1-4.6 4.2-11.3 4.4m-12.6-2c-3.6-2-4.7 3.4-4.5 4.3m0 0c.6 3.5 2.3 3.4 10.2 5.4m10.3.1c10.8 1 13.7-.8 12.5-4.3m0 0c.7-3.4-2-5-3.4-3.2M56 46c-5.4-1.9-8.4 11.5-8 21m8-21c-6 2.1-7.4 15.1-8 21m0 0a97 97 0 0 0-24 0m24 0c-8 .6-18.3-.2-24 0m0 0c.9-8-2.1-20-8-21m8 21c1.3-8.9-4.7-20.2-8-21m5 0c.5.5 1.2.6 2.2 1.4m0 0c1.1-1.6 2.7.1 1.6 0m0 0 1.4-.8m0 0c1.5-2 .8-2.2 1.6 0m0 0 1.4.8m0 0c-1-1.6 1.9 2.3 1.6 0m0 0 1.4-.8m0 0c.5-1.6.6.2 1.6 0m0 0 1.4.8m0 0c.4 1.5 3-1 1.6 0m0 0 1.4-.8m0 0c-.5.4-.8 1 1.6 0m0 0q1 .3 1.4.8m0 0c-1.4-1.2-.1 2 1.6 0m0 0q.6-.1 1.4-.8m0 0c2-1 .6 1.1 1.6 0m0 0 1.4.8m0 0c-1 1 2.1-.8 1.6 0m0 0q1.3-.6 2.2-1.4M18 30c-.2-.6-1.6 1.3-3 4m0 0c-.6 3.6 5 8 9 8m33-1.8c2.3.6 4.4 1.5 3 1.7m-3-1.7c.4-3 4-.7 3 1.7m0 0-1 1.7m1-1.7c-.6-1.4-1.5 1.8-1 1.7m-44-3.4c-2.3-2.1-1 1.2-2.7.7m0 0c.8.4-.4 4 .7 2.7M53 31c1.4 1.2 4.7.7 3 4m0 0c.5 2-2.2 5.9-6 7" stroke="#000" stroke-width="2" fill="none"/></svg>