<svg xmlns="http://www.w3.org/2000/svg" stroke-linecap="round" viewBox="0 0 72 72"><g stroke="#FFA7C0" fill="none"><path d="M14 17.4q0 0 0 0m0 0q0 0 0 0m-2.4 9.1c4.5-2.1 8.5-7.3 14.4-13.9M11.6 26.5c2.9-3.8 8.3-7.4 14.4-13.9M13.6 31.5c6.6-4.5 12.7-11 18-17.3m-18 17.3c7.3-5.3 12-12.6 18-17.3M16.5 35.8c6.2-3.1 9.9-9.4 19.4-18.7M16.4 35.8C24 28.8 29.5 23 35.8 17m-16 22.3c7-7.8 14.5-13 28.9-27.7M19.9 39.4c10.8-10.1 22-20.7 28.8-27.7m-26.1 32c11.5-11.4 21.3-21.7 31-29.8m-31 29.8c7.5-7.5 13.7-15.1 31-29.8M26 47.3c7.5-8.2 13-13.5 31.7-30.5M26 47.3c8-6 14.7-12.8 31.7-30.5m-29 34.8c10-11 19.4-21 31.7-30.5M28.8 51.6c12-11 23-22 31.7-30.5M32.3 55c7.5-7.7 11.7-12.1 27.4-26M32.3 55.2c7.1-6 12.6-11.7 27.4-26.3M35 59.5c1.6-1.3 4.6-2.9 8.7-8.3M35 59.5c2.5-1.8 4-4.2 8.7-8.3" stroke-width="1.1"/><path d="M60.5 25c1.6-5.6-7.1-12.5-13.5-13.5M60.5 25c1.1-7.7-6.4-15-13.5-13.5m0 0c-5-.7-7.2 3.9-11 5.7m11-5.7c-5.5.3-10.7 3.2-11 5.7m0 0c-2.4-3.4-7-7.2-11-5.7m11 5.7q-1.2-6.4-11-5.7m0 0c-6 1.4-15 5.2-13.5 13.5M25 11.5c-7.8 2.2-14.4 5.2-13.5 13.5m0 0c-1.5 3.7.5 6 2.4 7.6M11.5 25c2.2 1.8 1.3 5 2.4 7.6m0 0q0 0 0 0m0 0q0 0 0 0m0 0c8.3 9.1 12.2 15.9 20.8 26m-20.9-26c7 9.4 14.6 18.3 21 26m0 0c.5 0 1.3-.3 2.5 0m-2.6 0q.7-.3 2.6 0m0 0c7.2-10.5 16-18.8 20.2-25.1m-20.2 25c4.6-4.6 8.5-10.8 20.2-25m0 0 .7-.9m-.7.9.7-.9m0 0q0 0 0 0m0 0q0 0 0 0m0 0c-.3-.3.4-5 2.3-7.6m-2.4 7.6c1.6-.8 2.1-3.7 2.4-7.6m0 0q0 0 0 0m0 0q0 0 0 0"/></g><path d="M20 52q0 0 0 0m0 0q0 0 0 0m-4.8 7.4c.9-1 2.2-3 5.1-4.4m-6 4.4c1.8-1.3 3.4-2.5 5.8-4.8m-5.4 8c.8-1.6 3.2-3.3 5-4.9m-5.2 5.1c1.2-1.8 2.9-2.6 5.2-5" stroke="#61B2E4" stroke-width="1.3" fill="none"/><path d="M19.6 52.8c-.3 1.1.6 2.7.7 6.2m-.4-7q.3 3.6.3 7m.3-.8c-1.8 3-5 4-6 6.1m5.2-5a17 17 0 0 1-5.9 5.2m.9-.1c-.2-1.7-.9-4.6-.6-6m-.3 6.7c.3-1.6 0-3 .2-7.1m.2-.6q1.1-.3 6-4.8m-6.6 6c2.2-2 3.1-3.8 6.6-6" stroke="#61B2E4" fill="none"/><path d="M7.8 57.8q0 0 0 0m0 0q0 0 0 0m3.1-.1c1.3-2.5 2.6-3.3 4.5-4.9m-5 4.5c1.1-.6 2-2.3 4.6-5m-1.3 4.5c1.1-.5 2.3-2.2 3-3.7m-3 4.5q1.1-2 3.6-4.7" stroke="#92D3F5" fill="none"/><path d="M7.6 57.5c2 .2 4.1 0 6.5.4m.5 0c2.2-1.9 3.3-4 5.4-6m-.1.3c-1.7.1-4-.6-5.7-.8m0-.4c-1.6 2-4.5 4-6.6 6.7" stroke="#92D3F5" fill="none"/><g stroke="#92D3F5" fill="none"><path d="M58.3 6.3q0 0 0 0m0 0q0 0 0 0M59.5 8l2.3-2.5m-2 2.3 2-2.1M61 9.5c1.3-2.3 2.7-3.1 4-4.7M61.5 9c.8-1.5 2.5-3.2 4-4.7M62.2 10c2-1.8 4.1-3.1 6.6-5.7m-6.2 6c2.4-2.4 4.4-4.3 6-7m-4.3 8.1q1.2-.7 2.9-3M64 11.8c.8-.9 1.4-1.1 3-2.9M65.8 13q0 0 0 0m0 0q0 0 0 0" stroke-width="1.6"/><path d="M68.2 3.4c0 1.1-1 3-1.7 4.9m.4.2c-.2 1.6-.3 2.5-1.3 5m0-.5q-1.9-1.3-3.5-2.8m-.3-.1c-.3-1.2-.8-2.3-3.4-4m.4 0c.4-.4 2.2-.2 5-1m-.4 0c1.7-.3 3.5-1.2 5.3-1.3"/></g><path d="M28.3 49c2.5 3 4.8 4.8 7.7 9.5M28.3 49q4.3 5.6 7.7 9.5m0 0c6.4-9.3 12.5-15.3 20.7-25.7M36 58.5c7-8 13.4-15.9 20.7-25.7m0 0q0 0 0 0m0 0q0 0 0 0m0 0c2.8-2.7 2.5-5.5 2.8-7.8m-2.8 7.8c-.2-.2.7-2.5 2.8-7.8m0 0c.8-5-5-12-12.5-12.5M59.5 25c1.3-7-6.1-14.5-12.5-12.5m0 0c-6.3.2-10.4 2.7-11 6.6m11-6.6q-6.8 2.5-11 6.6m0 0c-2.7-5.3-7-5-11-6.6m11 6.6c-1-2.2-6.2-7.6-11-6.6m0 0c-7-.3-11.2 6.1-12.5 12.5M25 12.5C16 12.9 14 16 12.5 25m0 0c2 1.8 2.7 6.2 2.8 7.8M12.5 25c1.7 3.4.7 3.7 2.8 7.8m0 0q0 0 0 0m0 0q0 0 0 0m0 0c3.5 3.8 5.5 7.1 7.8 9.8m-7.8-9.8c1.8 2.4 3.9 5.4 7.8 9.8m11.4-6.3c-3.5 5.2-4.3 7-14.4 13.8m41.9-40c-1.6 1.3-2.7 1.6-3.7 4.3M20.5 51.6c-2.7-.5-5.4-.6-6.8-.7m7 .8c-2.2-.2-3.9-.4-7.2-.5m.6.2c-2.7 1-4.4 3.2-6.1 7m6-6.6c-2.9 2.2-5 3.5-6.8 6.3m-.5-.4c2.7-.2 4.6.2 7.7.6M7 58c3 .1 5.7 0 7-.3m-.2 0c.7 1.8 0 2.5.4 7m-.1-6.7.3 7m-.5-.5c2.3-2.5 5.3-3.2 7-5.4m-7 5.6c2.3-2.5 5-4.7 6.7-6.4m0 .5c-.7-1.8.6-4.5.4-6.7m-.6 6.3c.3-2 .5-3.5.5-7.1M68 3.4c-.4 2-.5 3.3-1.1 4.8m1-4.7q0 1.7-1 5m.2.4-1.9 4.7M67 8.4c-.7 1.6-.7 3.7-1.1 4.9m0-.2c-1.3-.7-1.9-2-3.4-3.4m3.3 3.7c-1.1-1.1-2.8-2.5-3.7-3.7m-.3.2c-1-1.3-2.7-3-3.8-4m4.1 4-3.7-4m.4-.3c1-.3 2.4.1 4.6-.7m-5 1.1c1.3-.2 2.3-.7 5.1-1M63 5c2-.1 4-1.1 5.6-1.2m-5 1.2c1.7-.8 3.4-.9 5-1.2" stroke="#000" stroke-width="2" fill="none"/></svg>