<svg xmlns="http://www.w3.org/2000/svg" stroke-linecap="round" viewBox="0 0 72 72"><path d="M25.6 12.2c-5.6 2.5-8.5 2.2-22.5 0M27 14.9c-8.5-1.4-16.8-.6-22.7-1.5" stroke="#000" stroke-width="1.9" fill="none"/><path d="M58.7 11.8c-9.2.1-14.8 4.2-22.9 3.9" stroke="#000" stroke-width="2" fill="none"/><g stroke="#FCEA2B" fill="none"><path d="M3.3 12.7q0 0 0 0m0 0q0 0 0 0m.2 1.4.6-.8m-.6.8q.5-.4.6-.8m-.4 2.2q.4-.8 1.8-2.3m-1.8 2.3 1.8-2.3M4 16.9c.8-1.1 1.2-1.2 3-3.9m-3 4 3-4m-3 5.3c1-1.4 3-2.5 4.3-5.5M4 18.3c1.7-2 3.4-4 4.3-5.5m-4 7c.8-2.5 4.3-4.8 5.4-7.2m-5.5 7.2c1.4-2 3-4 5.5-7.2m-5.3 8.6c2-3.4 3.8-6.6 6.1-8m-6.1 8 6.1-8m-6 9.4c1.6-2.7 4.7-5 7.4-9.5m-7.3 9.5c2-2.7 3.6-5.2 7.3-9.5M4.7 24c3.8-4.3 6-5.5 8.6-11M4.7 24c2.2-2.6 4.8-6 8.6-11M5 25.3c4.2-5 7.7-8 9.8-12.7M5 25.4c3.2-2.8 5.6-6.4 9.8-12.7m-9.6 14c4.4-5.6 7.2-11.6 10.4-13.3M5.1 26.8Q8.8 21 15.5 13.4M6 27.4c5.4-5 8-10.3 11-14.2M6 27.4c3.7-4.4 7-7.6 11-14.2M6.1 28.8C10 23 13.8 20 18.3 13M6.1 28.8c3.6-4 6.3-8.9 12.2-15.8m-12 17.2c4.8-5 7.4-10.7 13.4-17.4M6.2 30.2c2.8-4 5.7-9 13.5-17.4M7 30.8a79 79 0 0 1 14.1-18.1m-14 18.1c3.3-4 4.7-8.3 14-18.1m-14 19.5c4.6-5 8.3-13.1 14.8-19m-14.7 19c4.8-4.7 9-10.9 14.7-19M7.4 33.7c4.8-9 10.5-16.6 16-20.5m-16 20.5c5.4-7 9.2-12.9 16-20.5m-15.3 21C11.9 28.1 18 22 24.7 13M8.2 34.2C13.6 28 18.4 22.1 24.7 13M8.3 35.6c8-6.6 10.6-17.2 17.8-22.9m-17.8 23c5.7-7.2 9.7-12.3 17.8-23M8.5 37a79 79 0 0 1 18.4-23.6M8.5 37c5.2-5.5 7.6-11.4 18.4-23.6m-18.2 25c6.4-8 14.3-18.3 17.8-22.9m-17.8 23c5-7 10.4-14.4 17.8-23M9.5 39C16 32.4 19 29 26.7 17M9.5 39c5.2-7.3 11.7-13.7 17.2-22M10.3 39.7c3.9-3.9 8.2-11.8 16-20.6m-16 20.6c4-3.4 6.3-8.3 16-20.6M11 40.3c6.7-5.6 12.3-15.4 14.8-19M11 40.3c5.3-7.2 10.6-14.1 14.8-19M11.8 41c2.7-4 8.4-8.7 13.5-17.4M11.8 41c5.2-7.4 9.7-14 13.5-17.4m-12.7 18c1.3-5.3 8.5-8.6 13-16.6m-13 16.6c4-4.6 7.6-8 13-16.6M12.7 43c2.4-5.8 10-11 12.3-15.8M12.8 43c3.1-4.5 7.3-8.7 12.3-15.8M14.2 42.7c2.8-3.6 3.6-6.9 10.4-13.4M14.2 42.7c2.2-4 6.1-6.9 10.4-13.4m-9 13.3c3.4-3 5.2-5.3 9.2-11.9m-9.2 11.9c2.1-3.3 4.6-6.2 9.2-11.9M17 42.4c1.2-3 5.1-5.3 6.8-8.7M17 42.4c1.9-3 3.7-4.8 6.8-8.7" stroke-width="1.1"/><path d="M3.1 13C2.5 30.1 10.4 43.9 15 43m0 0c6.2-.2 9.2-12.7 11.9-30m0 0c-7.2-1.3-16.4 1-23.8 0m0 0q0 0 0 0"/></g><g stroke="#F1B31C" fill="none"><path d="M2.9 13.4q0 0 0 0m0 0q0 0 0 0m.3 1.4 1-1.8m-1 1.8 1-1.8m-.6 3.1c.6-1 .6-1.3 2-3.4m-2 3.4q.6-.8 2-3.4m-2.2 5.7c1.1-2 2.4-2.8 3.1-5.2m-3 5.2q.9-2.6 3-5.2m-2.7 6.5c1.3-2.3 2-4 4-6.8m-4 6.8c1.7-2.1 2.3-4.3 4-6.8M4.2 21c.5-2.1 3-3 4.6-7.7M4.1 21q1.6-2.4 4.6-7.7M5 21.6c2.2-4.2 4-6.3 5.1-8.6M5 21.6c1.5-3 3.9-6.6 5.1-8.6M5.3 23c1.2-4.3 4.4-6.1 6.2-10.3M5.3 23l6.2-10.3M5.7 24.4c3.5-5.5 5.7-10.1 6.6-11.2M5.7 24.4c2.6-4.4 5-7.8 6.6-11.2M6 25.7a35 35 0 0 0 6.7-11.1M6 25.7c2.5-3.2 4-6.4 6.7-11.1M6.3 27c1.1-2.5 3.5-5.2 6.2-10.3M6.3 27.1c1.4-2.5 3.4-5.2 6.2-10.3M6.7 28.5c2.5-3.2 4.8-5.6 6.1-10.3m-6 10.3c1.8-2.3 3-6 6.1-10.3M7 29.8c2.7-3.6 3.7-6.4 6.2-10.2M7 29.8c2.2-3.5 4.6-7.1 6.2-10.2M7.4 31.2c2.4-2 3.9-4.3 6.1-10.3M7.4 31.2C9.7 27.8 12 23 13.5 21M7.7 32.6A41 41 0 0 0 14 22.3M7.7 32.6c1-2.9 3-5 6.2-10.3M8 34c2.4-2.8 3-5.8 6.1-10.3M8.1 34c1.9-4.7 5-8.6 6.1-10.3M8.4 35.3C9.8 33 12 31 14.1 26m-5.7 9.4c1.4-3.5 4-6.4 5.7-9.4M8.8 36.7c1.6-3.2 4.5-5.3 5.6-9.4m-5.6 9.4c1.8-2.7 3.5-6.6 5.6-9.4M9.1 38c1.8-4 3.6-8.3 5.6-9.5M9.1 38c1.7-2.3 2.6-4.7 5.6-9.5m-4.7 10c1-2.1 4.3-6.6 5-8.6m-5 8.6c2.1-2.9 3-6.3 5-8.6M10.8 39c2.4-2.1 3.3-6.7 4.6-7.7M10.8 39c1.1-2.4 2.3-4.1 4.6-7.7m-3.7 8.2c.4-2 1.5-3.3 4.6-7.7m-4.6 7.7c1.8-2.5 3.3-5.7 4.6-7.7m-4.3 9c.5-1 2.3-4 4.6-7.6M12 41c1-2 2.5-3.8 4.6-7.7M13 41.5c2.2-3 3.6-4.7 4-6.9m-4 6.9c.6-1.7 2.1-3 4-6.9M13.8 42c1.7-1.4 1.5-2.8 4.1-6.8m-4 6.8c1-2.3 2-3.5 4-6.8m-3.2 7.3c.4-1 1.2-2 3.6-6m-3.6 6 3.6-6M15.5 43c.3-.8 1.3-2.9 3-5.1m-3 5.1q.9-2.4 3-5.1m-1.2 4c.6-1.2 1.3-1.8 2-3.5m-2 3.4 2-3.4m-.6 3c.4-.2.6-.4 1-1.6m-1 1.7c.4-.5.4-1 1-1.7" stroke-width=".8"/><path d="M11.4 13c-2.8.1-4.8-.2-8.3 0m0 0c.6 15 6 31 11.9 30m0 0c2.3-1.4 1.6-.4 4.4-2.5m0 0C14.7 36 12.7 25 11.4 13m0 0q0 0 0 0"/></g><g stroke="#FCEA2B" fill="none"><path d="M34.5 16q0 0 0 0m0 0q0 0 0 0m.5 3.6 5.2-4.7M35 19.6l5.2-4.7m-4 7.6c3.6-1.2 5-4.8 10.5-9.3m-10.4 9.3c2.2-2 4.5-4.4 10.4-9.3m-9.2 12.2c4.2-6.3 11-7.8 15-13.3m-15 13.3c5.2-5 12.5-9.5 15-13.3M38.7 28.3c8.6-7.6 15-12.8 18.6-16.7M38.8 28.3c4-4.2 7.8-8.2 18.6-16.7m-16.6 19c4.7-2 5.4-5.8 17.1-15.4M40.8 30.5c4.4-5.5 11.6-9 17.1-15.3M42 33.4c5.6-6.3 10-7.8 16.4-14.6M42 33.4c5.9-5.6 12.2-11 16.4-14.6M43.3 36.3c6.7-5.3 11-8.4 15.6-14m-15.6 14c4.8-4 9.3-7.6 15.6-14M45.3 38.6c3.4-2.9 8.8-6.6 13.4-12m-13.4 12c5.3-5.4 10.4-9.6 13.4-12M47.3 40.8l12-10.7m-12 10.7c3.3-4.1 8.4-7.5 12-10.7M50 42.4c2.4-.9 4.6-4 8.2-7.4M50 42.4c3.1-2.2 6-5.2 8.2-7.4" stroke-width="1.5"/><path d="M34.1 16.4c6.6 17.5 12.7 29.1 18.5 26.4m0 0c4.8-2.7 5.8-13.9 4.6-32m0 0a47 47 0 0 1-23 5.6m0 0q0 0 0 0"/></g><g stroke="#F1B31C" fill="none"><path d="M34 16.7q0 0 0 0m0 0q0 0 0 0m1 2q1.5-2.3 2.3-3.2M35 18.7c.9-1 1.4-2 2.4-3.2M36 20.7a14 14 0 0 0 4.2-5.6M36 20.7c1.9-2.2 3.4-4.5 4.2-5.6M37 22.7l6-8m-6 8c1.8-2.5 4-5.8 6-8m-5 10c1.5-2 2.3-3.3 6-8m-6 8 6-8m-5 10c1.5-2.2 3.6-5 5.4-7.3M39 26.7c1.5-2 2.1-3.2 5.4-7.3M40 28.7c2-2 3.6-5.4 5.4-7.3M40 28.7c1.5-2.6 3.9-5 5.4-7.3M41 30.7c2-1.2 3.1-3.7 5.4-7.3M41 30.7q2.6-4.2 5.4-7.3M42 32.6c.8-2.4 2.5-3.5 5.4-7.2M42 32.6c.9-1.6 2.1-3.6 5.4-7.2M43 34.6c2-1.8 3.1-3.8 5.4-7.2M43 34.6c1.4-1.8 2.3-3.5 5.4-7.2M44 36.6c2-2.3 2.4-2.6 4.8-6.4M44 36.6c1.3-1.3 2.6-3.3 4.8-6.4m-3.2 7.6c.4-1.6 2.4-2.6 4.8-6.4m-4.8 6.4c1.3-1.7 2.5-4 4.8-6.4m-3.8 8.4c1.6-2.2 3.2-3.4 4.8-6.4m-4.8 6.4q2.5-2.8 4.8-6.4M48.1 41q2-1.7 4.8-6.4M48.1 41a48 48 0 0 0 4.8-6.4m-2.6 6.8c1-2.2 3.1-3 3.6-4.8m-3.6 4.8q2.3-2.5 3.6-4.8m-2 6c1-1 2.7-3 3.6-4.8M52 42.6c.9-1.1 2.1-3 3.6-4.8"/><path d="M42.2 14.4c-2 1.3-5.5 1.6-8 2m0 0C40.5 32 46.6 43 52.5 42.8m0 0c3.1.5 3.1-1.7 3.7-3.4m0 0a91 91 0 0 1-14.1-25m0 0q0 0 0 0"/></g><path d="M16 44.7c-1.1 3.2-1.3 9.3.9 23.3" stroke="#000" stroke-width="2" fill="none"/><path d="M4.6 67c7 0 14.1-.9 20 1.5M3 5c-.3 2.3-1.2 1.1 0 2.8m0 0C2.1 25.5 7.2 41.3 15 43m0 0c5 .1 10.9-16.2 12-35.1m0 0c1.2-.2-1.3-3.7 0-2.9m24.6 38.8c4.4 10.6 3.6 18.6 5 21.2" stroke="#000" stroke-width="2" fill="none"/><path d="M46 67c8.4 1 17.2-3.3 21.2-4.2m-35-54.2c1 .2-1.5.2.6 2.8m0 0c4.4 20.3 11.5 32 19.8 31.4m0 0c7.6-3.5 7.2-16.4 3.6-37m0 0c-.1-.6-.1-2.8-.7-2.7" stroke="#000" stroke-width="2" fill="none"/></svg>