<svg xmlns="http://www.w3.org/2000/svg" stroke-linecap="round" viewBox="0 0 72 72"><g stroke="#FCEA2B" fill="none"><path d="M12 20q0 0 0 0m0 0q0 0 0 0m-.3 4.4c.5-2.1 1.9-4.1 4.6-7.8m-4.6 7.8c1.8-2 2.3-4.8 4.6-7.8m-4.9 12.2c3.3-4.2 5.2-8.7 7.7-12.9m-7.7 13a78 78 0 0 1 7.7-13m-8 17.4c2.8-3.1 6.6-10.8 10.2-17.2M11 33.3a91 91 0 0 0 10.2-17.2m-10 20.8c3-6.3 8.7-14.8 12.2-20.7M11.3 37c2.1-5.2 5.4-8.7 12.2-20.7m-10 20.9c5.3-4.9 6-10.8 12.3-20.7M13.5 37.1a108 108 0 0 0 12.3-20.7m-10 20.8c1.9-5 7.5-15.1 12.2-20.6M15.8 37.2c3.1-5.6 6.7-12.4 12.2-20.6M18 37.4c4.7-7.2 9-13.9 12.7-21.5M18 37.4c3.7-4.4 5.2-10.8 12.7-21.5M20.2 37.5c5.2-9 10.3-18 12.8-21.5M20.2 37.5C24.6 31 29.2 23 33 16M22.5 37.7c4-6 9.3-14.7 12.7-21.5M22.5 37.7c4.8-7.6 9.3-15.8 12.7-21.5M25.2 37c6.3-6.2 8.6-15.6 12.2-20.7M25.2 37c2.7-6.8 6.4-11.2 12.2-20.7m-10 20.8c3.4-5.8 7.2-9.1 12.8-21.5M27.4 37.1C32 29.7 35.8 25 40.2 15.6M29.7 37.3c1.6-6 6.3-9.7 12.7-21.5M29.7 37.3c5.3-9 10.2-17.5 12.7-21.5M31.9 37.5C38 29.8 41 20.4 44.6 15.9M32 37.5c5.9-7.9 10-17.7 12.7-21.6M34.1 37.6C37 33.2 39.8 27 46.8 16.1M34.1 37.6c5.1-6.6 7.3-13.2 12.7-21.5M36.3 37.8c5.3-7 8.2-13.3 12.8-21.5M36.3 37.8c2.2-5.3 5.8-10.4 12.8-21.5M38.6 37.9c6.6-10.2 12.1-16.8 13.2-22.3M38.6 37.9c5.5-8 8.6-15.8 13.2-22.3M40.8 38c6.4-8.2 8.6-16 13.2-22.4M40.8 38.1C43.5 33 47.4 27.9 54 15.7M43.5 37.4a111 111 0 0 0 12.8-21.5M43.5 37.4c4.3-8.8 10.2-17.2 12.8-21.5M45.8 37.5c6-6.2 9-13.5 12.2-20.6M45.8 37.5C49 31.8 51.2 28 58 17M48 37.7c2.7-4.6 3.5-11 11.7-19.8M48 37.7c3.6-5.2 7.3-13 11.7-19.8m-9.5 20c3-8 7.3-12.6 9.7-16.4M50.2 38c2.6-4.4 3.2-7 9.7-16.4M52.5 38c1.9-2.1 4.2-7.4 7.6-12.9m-7.6 13c2.2-4.5 4.7-7.3 7.6-13m-5.4 13c1.3-3.5 5-8.4 5.6-9.4m-5.6 9.5c2.5-3.9 4-7.6 5.6-9.5m-3.4 9.6c.4-1.1 2.3-2.8 3.6-6m-3.6 6c.6-1.6 1.3-2.2 3.6-6m-1.3 6.2c.6-.5.7-1.4 1.5-2.6m-1.5 2.6 1.5-2.6" stroke-width=".7"/><path d="M11 37c1.5-.9 50.6.8 50 1m0 0q-.2-3 0-7m0 0h-1m0 0c-.6-3 .5-5 0-11m0 0c.9-3.8-4-6.1-5-5m0 0c-9.5 1.9-17.5-1.9-38 0m0 0c-2 1.7-3 3.7-5 5m0 0c.3 3.5.2 9.4 0 11m0 0h-1m0 0c.1 2.2-.5 4.6 0 6m0 0q0 0 0 0"/></g><g stroke="#FFF" fill="none"><path d="M13.5 16.4q0 0 0 0m0 0q0 0 0 0m-1.4 6.2q3.5-4.7 4.7-7.7M12 22.6q2.3-4.4 4.7-7.7M15.4 21c1.5-1.7 3-4.4 3.6-6m-3.6 6c.8-1.3 2-2.9 3.6-6m-2 7c2-1.9 2.7-4.6 4.2-6.8m-4.1 6.9q2.5-3.1 4.1-6.9m-2.4 8c2-1.8 3.3-4.8 4.7-7.8m-4.7 7.7c1.8-2.3 2.5-5.2 4.7-7.7M21 23.3c2-1.7 2.7-4.3 4.7-7.7M21 23.3c1.3-1.8 2.3-4.2 4.7-7.7m-3 8.7c1.9-1.3 2.4-3.2 5.2-8.5m-5.2 8.5c1.5-3 4.1-6.4 5.2-8.5m-1.9 7c1.2-2.7 3.5-5.4 4.7-7.7M26 22.8c1.5-3 3.4-6.5 4.7-7.7m-1.4 6.2c.4-1.4 2.8-4 3.6-6m-3.6 6c1.3-2.3 2.5-4.6 3.6-6m-2 7c.9-3 3.5-5 4.2-6.8M31 22.3c1.3-1.9 2-4 4.1-6.8m-1.9 7c1.5-2.2 2.5-4.6 4.2-6.8m-4.2 6.8c.7-1.7 1.8-3.1 4.2-6.8m-2.5 7.8c1.6-2.4 2-3.3 5.2-8.5m-5.2 8.5c1.9-3.3 4-6.4 5.2-8.5m-3.5 9.6c2.6-4 4.5-6.6 5.7-9.4m-5.7 9.4c2-3.1 4.3-7 5.7-9.4M40 23c2.5-2.7 3-7 4.7-7.7M39.9 23c.7-1.5 2.2-3.7 4.7-7.7m-1.4 6.2c1.8-2.2 2.4-4.2 3.6-6m-3.6 6c1.3-2.2 2.8-4.2 3.6-6m-1.4 6.2c1.2-1 1.7-3.2 3.6-6m-3.6 6c1-1.3 1.4-3 3.6-6m-2 7c1-1.5 2.3-2.2 4.8-7.7M47 22.7q1.6-3.3 4.7-7.7m-3 8.8c1.5-1.6 1.5-3.3 5.2-8.6m-5.2 8.6c1.6-3 3.5-6.3 5.2-8.6M51 24c.9-2.3 4.1-6.2 5.2-8.6M51 24c1.3-2.1 2.5-4.4 5.2-8.6m-2.4 7.9c2-2.6 2.5-4.8 4.1-6.9m-4.1 6.9 4.1-6.9m-.9 5.4 2.6-4.3M57 21.8c.7-.7 1.1-1.6 2.6-4.3m-.3 4.4 1-1.7m-1 1.7 1-1.7" stroke-width="1.5"/><path d="M12 22c2.6 0 3.7-3 6.3.5m0 0c1.6 1.9 6.6 1.9 7 0m0 0c1.5-.2 6.8-.5 7.2 0m0 0c2 1.6 4.7.7 7 0m0 0c3.7-.5 6.8-2.4 7.1 0m0 0c1.2 4 6.4.9 7 0m0 0c3.5-3.1 5.1-2 6.4-.6m0 0V20m0 0c-2-1.1-1.5-5.6-5-5m0 0c-14-1.3-29-.5-38 0m0 0c-3 0-3.1 2.6-5 5m0 0c.2.7-.1 1 0 2m0 0q0 0 0 0"/></g><g stroke="#FCEA2B" fill="none"><path d="M5.2 40.6q0 0 0 0m0 0q0 0 0 0m0 5.9c2.3-3 5.1-7.4 5.7-9.4m-5.7 9.4C7 42.7 9.9 39 10.9 37M5.2 52.3c3-5.2 7.3-12.7 9.3-15.4M5.2 52.3c3-6.5 7.1-11.7 9.3-15.4M5.1 58.1c3.7-7 6.6-10.4 13-21.3M5.1 58c3.9-6.7 7.5-13.4 13-21.3M6.7 61.4c5.2-10 12.2-20.2 15-24.8m-15 24.8c6.4-10.8 12.1-19.9 15-24.8m-12 25.5c5.7-10.6 13.6-20.8 15.6-25.6M9.7 62C13 56.3 17 48 25.3 36.5m-12 25.4c4.4-7.4 5.3-10.4 15.6-25.6M13.3 61.9A424 424 0 0 1 29 36.3M17 61.8c4-8.3 9.2-14.3 15-24.8M17 61.8 32 37M20 62.5c4.7-4.4 6.7-9.7 15.6-25.6M20 62.5c5.7-9.9 11.2-18.2 15.6-25.6m-12 25.4c5.2-7.3 11.2-19.5 15.6-25.6M23.6 62.3l15.6-25.6m-12 25.5c6.3-9.9 13-19 15.6-25.6M27.2 62.2c5-9.8 11-19.5 15.6-25.6M30.8 62c7.3-10.8 11.7-21.2 15.6-25.6M30.8 62c3.8-6.6 9-12.5 15.6-25.6m-12 25.5A99 99 0 0 0 50 36.3M34.4 61.9C39 55.2 41.7 49.7 50 36.3M37.5 62.6c6.2-11.2 11-20.3 16.1-26.5m-16 26.5c3.9-4.8 7.2-11.4 16-26.5M41.1 62.4c5-7.2 11-14.5 15.6-25.6M41.1 62.4c6-10 13-20.1 15.6-25.6m-12 25.5c2.5-7.6 7.9-10.9 15.6-25.6M44.7 62.3c4-5.3 6.8-11 15.6-25.6M48.3 62c4-7.8 6.8-14 15-24.7M48.4 62c3.9-6.6 6.7-11.5 15-24.7M52 62c4.8-7.2 10.6-13.7 14-23M52 62c3.5-4.6 6.3-10.5 14-23M55.5 61.7c3.1-4.3 4.3-11 11.5-18.8M55.5 61.8c3-5.5 5.6-9 11.5-18.8m-8.4 19.5 8.3-13.6m-8.3 13.6c1.5-3.4 4-6.2 8.3-13.6m-4.7 13.5c1.3-2.4 3.5-6.8 5.2-8.6m-5.2 8.6c2-2.8 4-6.3 5.2-8.6" stroke-width=".5"/><path d="M5 60c-1.8-.3 1 2.3 2 2m0 0c20-.1 37.6 1.1 58 0m0 0c.3.4 2.7-.2 2-2m0 0c-1.7-5.2.8-14.4 0-19m0 0c1-2.8-1.4-4.1-5-5m0 0c-17 2-34.7-1.6-52 0m0 0a17 17 0 0 0-5 5m0 0c-.3 5.8-1.3 15.3 0 19m0 0q0 0 0 0"/></g><g stroke="#EA5A47" fill="none"><path d="M34.8 8.5q0 0 0 0m0 0q0 0 0 0M33 14.1c1.6-2 3.2-3 5.2-4.7M33 14q3.5-2.6 5.2-4.7m-2.5 6.2a4 4 0 0 1 1.5-1.3m-1.5 1.3q.5-.2 1.5-1.3" stroke-width="1.5"/><path d="M34.6 8.6c.8-.1 2.8-.2 3.4 0 .5.3 0 .8 0 1.5V13c-.2.6-.6.6-.9 1s-.4 1.7-1 1.8c-.7 0-2.3-.6-3-1.3-.5-.7-1-2.3-.7-2.8.2-.6 1.4 0 1.9-.6s.7-2.2 1-2.5c.2-.4.2.4.4.4m1 1.4c.6.4 2.8.2 3.3.8s-.3 2.2-.4 2.7.4-.4-.4-.1c-.8.2-3.8 1.5-4.5 1.6s.2-.7.1-1.1-.7-.8-.8-1.6 0-2.8 0-3.2-.3.4.1.6l2.4.4c.3 0-.6-.4-.4-.4"/></g><g stroke="#FFF" fill="none"><path d="M5.4 39.1q0 0 0 0m0 0q0 0 0 0m-.1 3.6c.7-1 1.6-2.6 4-5.7m-4 5.7c1.3-1.2 2.3-2.6 4-5.7m-3.5 8.5c1-2.7 4.9-5.7 6.3-9m-6.3 9c.9-2.1 2.9-3.2 6.3-9m-3 7.7c2.3-2 4.3-4 5.2-7.4M9 44.2c1-1.9 2.5-3.6 5.2-7.4m-3.5 8.5c2-2.2 3.4-4.7 6.3-9m-6.3 9q2-3.5 6.3-9m-4.7 10.2a95 95 0 0 1 6.9-9.9m-6.9 9.9a50 50 0 0 0 6.9-9.9m-4.7 10.2A79 79 0 0 1 22 36.1m-7.5 10.7c2.4-2.4 4.2-5 7.5-10.7m-5.3 11a33 33 0 0 1 7.5-10.6M16.8 47c2.6-4 5-8.2 7.5-10.6M20.8 45a40 40 0 0 0 5.7-8.2M20.8 45c1.6-2 2.9-4.5 5.7-8.2m-3 7.7c2.4-2 3.3-6.3 5.8-8.2m-5.8 8.2c1.6-1.6 3.2-3.8 5.8-8.2m-4.1 9.3c2.1-2.8 3.7-6.1 6.3-9m-6.3 9c1.6-2.3 3.2-5 6.3-9m-4.7 10.2c3.8-3.5 5.8-9.3 7.5-10.7m-7.5 10.7Q29.1 42 34.3 36M29 47c2.9-4.4 5.5-5.7 7.5-10.7M29 47.1c3.5-4 6.4-8 7.5-10.7m-4.1 9.4c.8-2.2 3-3.7 6.3-9m-6.3 9c1.5-2.9 4-4.8 6.3-9m-3 7.7c.8-2.6 1.8-4.4 5.8-8.2m-5.7 8.2c1.6-1.7 3.2-3.7 5.7-8.2M38 44.8c2.5-2.7 3.4-5.5 5.7-8.2M38 44.8c1.6-2.3 3-4 5.7-8.2m-4 9.3a142 142 0 0 0 6.8-9.8M39.6 46c2-2.5 3.5-5 6.9-9.8m-4.7 10.2c1.2-2.3 2-4.8 6.9-9.9m-6.9 9.9c2.2-2.7 3.7-5 6.9-9.9m-5.2 11c2.9-4.1 6.1-6.5 8-11.5m-8 11.5c2.5-4.5 5.9-7.9 8-11.5m-4.7 10.2c1.7-3.7 5-6.7 6.9-9.8M46.8 46c1.8-2.6 4.1-5.5 6.9-9.8m-3 7.7c1-2.1 3-5.5 5.2-7.4M50.7 44c1.2-1.5 2.4-2.6 5.2-7.4M52.4 45c1.1-2.2 3.8-3.4 6.3-9m-6.3 9c1.5-2.4 3-5.6 6.3-9M54 46.3c2.2-2.7 2.7-4.7 6.9-9.9M54 46.3c1.3-1.7 2.3-3.8 6.9-9.9m-4.7 10.2c1.7-3 3.7-5.4 7-9.9m-7 9.9c2-3.2 4-6.2 7-9.9m-5.3 11c2.2-3.7 6.6-9 7.4-10.6M58 47.7c1.6-2.7 3.3-4.9 7.4-10.6m-3.5 8.5c2-3.1 3-6 4.6-6.6m-4.6 6.6c1.2-2.4 3-4.3 4.6-6.6m-1.2 5.3a13 13 0 0 0 2.3-3.3m-2.3 3.3 2.3-3.3" stroke-width=".6"/><path d="M11.3 45.5c2.1 3.5 3.1.5 7 0m0 0c1.6-1.5 6.7-1.6 7 0m0 0c3.6 2.3 4 .4 7.2 0m0 0c3.1-1.4 3.5-.9 7 0m0 0q3.3 1.7 7.1 0m0 0c3.1-2 5.4-.5 7 0m0 0c.6 0 6.9 1.7 7.1 0m0 0c2-2.2 2.5-3 6.3-.6m0 0V41m0 0c-1.7-4.6-3.9-6-5-5m0 0c-11.4-1.2-21.7-.7-52 0m0 0c-3-1.8-6 1.8-5 5m0 0c.2 1-.3 2.3 0 3.9m0 0c2.8-2.7 6.5.9 6.3.6m0 0q0 0 0 0"/></g><path d="M34.5 9.8c.7-.3 2.5-1.1 3.3-1.1q1.1.1 1.2 1c.1.5-.8 1.3-.9 2-.1.8.6 2 .1 2.7-.4.6-2 1-2.7.9-.7-.2-1-1.6-1.6-2-.5-.5-1.3-.2-1.5-.6a2 2 0 0 1 .3-2 14 14 0 0 1 3-2.6c.6-.2 0 1.1.2 1.3" stroke="#000" stroke-width="2" fill="none"/><path d="M36 10.8c-.3-.8 1.8-3.7 5-5M11.3 45.5c1.6 3.6 6 1.2 7 0m0 0c3.8-2 5.4-.2 7 0m0 0c0 3.7 6.9 4 7.2 0m0 0c.6-.6 4.3-1.3 7 0m0 0c3.6 3.8 4.3 3.5 7.1 0m0 0c3.9-2.2 3.9-2 7 0m0 0c1.6 1.3 5 3.7 7.1 0m0 0c1.6-2.4 3.7-1.6 6.3-.6m0 0c.3-1.8 0-2.8 0-3.9m0 0c-1.8-4.5-3.2-5.5-5-5m0 0c-18.5.2-39.5 1.5-52 0m0 0c-1.3 0-4.4 3-5 5m0 0c-.2 1.4 0 2.4 0 3.9m0 0c.3-.2 3-2.8 6.3.6m0 0q0 0 0 0M5 44.9c1.2 3.4 1.4 9.4 0 15.1m0 0c-.9 2.5-.7.6 2 2m0 0c14.5-1 31 .2 58 0m0 0c.4-1.8 1-1.5 2-2m0 0c.4-4.7 1.2-9.5 0-15.1" stroke="#000" stroke-width="2" fill="none"/><path d="M11.3 45.5c1.2 3.6 4.7 1 7 0m-7 0c2 2 5.3 3.7 7 0m0 0c.4-3.2 5.8-1.9 7 0m-7 0c1.9-3 3-2.2 7 0m0 0c.8 1.3 6.8 1 7.2 0m-7.1 0c2.5 3.1 4.8 2.5 7 0m0 0c1-2.2 5.7 0 7.1 0m-7 0c2.7-3 7.3 0 7 0m0 0c.7 3.9 4.8 2.6 7.1 0m-7 0c.3 1.1 4.6 1.9 7 0m0 0c2.5-2.4 5.1-2.7 7 0m-7 0c3.5-3.5 4-3 7 0m0 0c3.1 2.1 6.2 1.5 7.1 0m-7 0c-.2-.2 5.9 4.1 7 0m0 0c1.8-3.6 3.6-2.8 6.3-.6m-6.3.6c3.8-2.8 5-2.9 6.3-.6m0 0V41m0 3.9V41m0 0c1.5-2.8-1.7-3.5-5-5m5 5c-1.2-1.6-1-6.2-5-5m0 0c-17.3 0-36.8-1.6-52 0m52 0c-13.3.8-28 .2-52 0m0 0c-2.7-2-4.7 2.8-5 5m5-5c-3.2 2-5 2.2-5 5m0 0a17 17 0 0 0 0 3.9M5 41v3.9m0 0c0-3 6.4-.8 6.3.6M5 45c4-3.3 6.4.4 6.3.6m0 0q0 0 0 0m0 0q0 0 0 0m48.3-24a25 25 0 0 0 .9 11M60.3 22a45 45 0 0 0 0 9.6m-47.9-10c.7 2.4.6 5.2-1.2 10.5m1.2-10.5c-.7 3.3-.7 7.5-.5 10.3" stroke="#000" stroke-width="2" fill="none"/><path d="M12 22c1.4-2.3 5.5-.6 6.3.5m0 0c3.7 1 6.5 3.8 7 0m0 0c3.5-1.4 5.5-2.4 7.2 0m0 0c3.2 2.3 4 2.2 7 0m0 0c3-.5 5.8-3.5 7.1 0m0 0c1.8 2.8 4.7 3.7 7 0m0 0c.7-3.4 4.9-1.4 6.4-.6m0 0c.2-.5-.1-1.3 0-1.9m0 0c-.7-1.3-.4-5.8-5-5m0 0c-8.3 1.6-16.8-.3-38 0m0 0c-3.6 1.8-5.7.5-5 5m0 0q.2 1.4 0 2m0 0q0 0 0 0" stroke="#000" stroke-width="2" fill="none"/></svg>