<svg xmlns="http://www.w3.org/2000/svg" stroke-linecap="round" viewBox="0 0 72 72"><g stroke="#D0CFCE" fill="none"><path d="M8.4 35.2q0 0 0 0m0 0q0 0 0 0M6.8 46c4.5-7.2 8.7-11.4 10.7-18.1m-10.7 18c2.4-5.5 6.2-10 10.7-18M9.2 49.6C12.7 43 19.7 33.6 25 23M9.2 49.6c4.8-8 8.7-15 15.8-26.7M11.6 53.4c7.2-11.2 14-20.3 17.9-30.1m-17.9 30c6.3-11 12.3-22.6 17.9-30M16 53.7c5.1-9.5 12-18.3 21.4-36.1M16 53.7c5.2-8.9 9.8-16.2 21.4-36.1M20.5 54C29.4 40 36.8 30.2 42 18M20.5 54A406 406 0 0 0 42 18M25 54.3c5.7-9.2 8.3-15.8 21.5-36.1M25 54.3a872 872 0 0 1 21.4-36.1M30 53.8c5.4-13 16-27.3 19.3-32.7M30 53.8C35.6 46 38.7 39.2 49.3 21M34.4 54c7.9-11 12-20.3 17.9-30.1M34.4 54.1c6.4-9.7 10.8-18.8 17.9-30.1M38.9 54.4c3.4-5 9.2-15 15.8-26.6M38.9 54.4c6.1-8.4 11-17 15.8-26.6m-11.4 27c4.8-5.2 6.9-13 14.3-24.1m-14.3 24c3.7-5.5 6.2-9.2 14.3-24m-9.3 23.5C52.2 49.5 55 42 61.1 32.7M48.3 54.2c4.6-6.4 8-14.9 12.8-21.5m-8.3 21.8c1-3.4 4.6-9.2 11.2-18.9m-11.2 19c2.8-4.6 5.3-8 11.2-19m-6.8 19.2c2.5-5.7 4.7-7.6 8.7-14.6m-8.7 14.6c3.3-4.5 5.2-8.3 8.7-14.6" stroke-width="1.2"/><path d="M16 30.3c1.6 1.5-.6 2-.9.8m0 0c-5.6-.8-9.5 6-9.1 11.8m0 0c-.5 5 3.4 11.5 10.2 11.9m0 0c13.7.3 28-.5 38.6 0m0 0c6-.7 12-6.6 11.2-12.6m0 0c-.9-8-5-10.9-10.4-12.5m0 0c.2-.7-.5-1.4-.9-.8m0 0c.3-5.4-5.6-13.2-14.3-11.6m0 0c-3.2.7-9.2.4-11.4 5.4m0 0c1.6-1.4-.2-1-1 .3m0 0q-2.5-2.3-3.4-.7m0 0c-3.5-1-7.5 4.9-8.7 8m0 0q0 0 0 0"/></g><path d="M16 30.3c-2 .7-.7 1.8-.9.8m0 0c-4 .1-10.7 7.1-9.1 11.8m0 0c1 5.5 2.7 10.8 10.2 11.9m0 0c15-2 29.1 1.1 38.6 0m0 0c5.6.5 11.3-4.1 11.2-12.6m0 0c-1.1-5-5.4-11.4-10.4-12.5m0 0c-.4.4.6 1-.9-.8m0 0c-1.1-6.7-6.9-11.2-14.3-11.6m0 0c-5.4 0-8.2.9-11.4 5.4m0 0c-.3 1.5 0 2.1-1 .3m0 0c-1.9-1.2-3.8 0-3.4-.7m0 0C21 21 15.4 27 16 30.3m0 0q0 0 0 0" stroke="#000" stroke-width="2" fill="none"/></svg>