<svg xmlns="http://www.w3.org/2000/svg" stroke-linecap="round" viewBox="0 0 72 72"><g stroke="#D0CFCE" fill="none"><path d="M27.2 42.9q0 0 0 0m0 0q0 0 0 0m-.3 3.6c.6-1 1.7-2.9 2.5-3.2m-2.5 3.2q1-1.6 2.5-3.2m-2.2 6c1-2.4 3.6-5 5-6.3m-5 6.3c1.4-1.7 3.2-4.2 5-6.3m-4.6 9.1c2-1.9 5.1-6.6 7.4-9.4M27.6 52c2-1.6 3-4.1 7.4-9.4m-7.7 13c2.6-3 4.4-4.9 9.9-12.6m-9.9 12.6c3-4.4 6.9-8.4 9.9-12.6m-7 12.3c1.3-2.5 6.6-8.7 9.8-12.6M30 55.4c2.7-2.6 4.7-7.3 9.9-12.6m-7.7 13c2.4-1.9 4.5-4.5 9.9-12.6m-9.9 12.6c3-4.1 6.3-8.8 9.9-12.6m-7 12.3q3.7-3.4 9.2-11.8M35 55.5c3.7-4 6.3-7.9 9.3-11.8m-7.1 12.2 7.4-9.4m-7.4 9.4c2.7-2.8 4.5-6.1 7.4-9.4m-5.2 9.9c.5-1 2.8-3.2 5-6.3m-5 6.3c1.9-2.2 4.3-5 5-6.3" stroke-width="1.3"/><path d="M27.1 43c.8 3.7-.8 5.6 0 11.2m0-11.2c0 2.7.3 5.5 0 11.2m0 0c.8.3 1.6 2.8 2.6 2m-2.6-2c1.6.2-2.2.3 2.6 2m0 0c1.9-.9 12.5-1.4 11.7 0m-11.7 0c4.2.3 10.6-1.1 11.7 0m0 0c.2-.8 2 1.5 2.3-2.5m-2.3 2.4c1.4-2 .2.1 2.3-2.4m0 0c1.7-3.1-1-6.5 0-10.7m0 10.7c1.8-2-1.1-6.7 0-10.7" stroke-width="2"/></g><g stroke="#D0CFCE" fill="none"><path d="M27.4 46.4q0 0 0 0m0 0q0 0 0 0m0 5c1-1 2.9-3.5 3.6-4.8m-3.7 4.8c1.3-2 3.1-3.8 3.7-4.8m-3.1 9c2.1-1.1 2.9-5 6.7-8.7m-6.7 8.7c1.6-3.2 4.5-5.2 6.7-8.7m-3.1 9c2.5-3.2 4.2-4 6.7-8.8m-6.7 8.7c1.6-1.5 3.5-3.4 6.7-8.7m-3.1 9c1.5-3.4 3-5.1 7.3-9.5M35.1 56a84 84 0 0 0 7.3-9.5m-3.7 9.7c1.8-3 3-4.3 5.5-7.1m-5.5 7.1c1.5-1.9 3.2-3.4 5.5-7.1" stroke-width="1.3"/><path d="M27.1 46.7c-.2 3-.6 5.1 0 8m0 0c1.4-.2 1.7 0 2.6 1.4m0 0c2.8-1.5 12.1.1 11.7 0m0 0c.5-.8 2.4 2.3 2.3-1.7m0 0c1.1 0-1-5.4 0-7.7"/></g><g stroke="#EA5A47" fill="none"><path d="M12.8 27q0 0 0 0m0 0q0 0 0 0m-1.2 7.5c3.6-8.4 8.6-12 11.7-18.7M11.6 34.5c2.6-4.9 4.7-8.9 11.7-18.7m-10.2 22c4.2-8 10.2-17 15.4-24.6M13.1 37.7c4.3-5.9 7.6-11.2 15.4-24.5m-13.4 27c7-10.2 10.5-18.3 17.5-28m-17.5 28c4-8.2 9.8-14 17.5-28m-15 29.6c5.7-7.6 13-19.4 19.2-30.5M17.6 41.8c5.5-9.8 13-20 19.2-30.5M20.7 42.5c3.5-8.2 6.9-12.7 19.1-30.5M20.7 42.5C25.8 34.4 31 24.4 39.8 12m-16 31.3c7.8-11.4 12-21.3 19.1-30.5M23.8 43.3c6.8-10.4 13.8-21 19.1-30.5M27.4 43.2c5-5.5 9.4-14.2 18.6-29.7M27.4 43.2A696 696 0 0 0 46 13.5M31 43.1a155 155 0 0 1 17.5-28M31 43.1c5.3-8.4 9.3-15.8 17.5-28M34.5 43C41 32.7 47.3 22.4 51.2 16.7M34.6 43c4.7-7.7 8.1-15.1 16.5-26.3m-13.5 27c3-5.8 7.2-13.2 15.5-24.5M37.6 43.7c3.5-6.4 8.6-12.8 15.5-24.5M41.8 42.8c6.8-7.5 9.2-17 13.8-22m-13.8 22a150 150 0 0 0 13.8-22M45.4 42.7c4-4.3 6.5-11.9 11.7-18.6M45.4 42.7c3.9-7.4 9.7-13 11.7-18.6M49 42.6c3.5-3 4.6-8.7 10.1-16M49 42.5c1.6-4.2 4.7-7 10.1-16m-6 15c1-3 4.7-4.6 7.5-11.8m-7.6 12c3.7-5 5.6-9.7 7.5-11.9m-3.3 11c1-3.3 3-5.6 4.2-6.9m-4.2 6.8a32 32 0 0 0 4.2-6.8" stroke-width="1.6"/><path d="M61 34c2 7-10 7.4-25 9m0 0c-13.6-.9-25.7-.7-25-9m0 0c-.9-10.1 13.1-25 25-23m0 0c13.7-.9 23.2 12.5 25 23m0 0q0 0 0 0"/></g><path d="M61 34c-1 8.7-11.6 7.5-25 9m25-9c-.6 9.7-9 8.6-25 9m0 0c-14.1-1.2-24 .9-25-9m25 9c-14.6.4-24.5-1.8-25-9m0 0c-.2-9.5 12.4-22.7 25-23M11 34C9.6 27 21.3 8.7 36 11m0 0c14.7.4 24.7 14.6 25 23M36 11c11.9 1.2 25 14.5 25 23m0 0q0 0 0 0m0 0q0 0 0 0" stroke="#FFF" stroke-width="2" fill="none"/><g stroke="#D22F27" fill="none"><path d="M35.8 11.2q0 0 0 0m0 0q0 0 0 0m1.6 1.2.6-.8m-.6.8.6-.8m1 2 1.2-1.6M39 13.6l1.2-1.6m-.1 3.6c.5-1.5 2-2.2 2.3-3.3m-2.3 3.3a18 18 0 0 1 2.3-3.3m-.7 4.4c1-1.6 1.3-2 3-4m-3 4c.9-1.3 2-3.2 3-4m-2 6c.7-1.7 2.7-3 3.5-4.8m-3.5 4.8c.9-1.3 1.6-2 3.5-4.8m-1.9 6 3.6-4.8m-3.6 4.8c1-1 2-2.3 3.6-4.8m-2 6a19 19 0 0 0 3.6-4.9m-3.6 4.9q2.3-2.8 3.6-4.9M47 23.1c.8-1.8 2.7-3.6 4-5.7m-4 5.7c1.5-2.4 3-4.8 4-5.7m-2.4 6.9c1-1.6 2.3-2.8 4.1-5.7m-4.1 5.6q1.7-2 4.1-5.6M37.2 43.2l.6-.8m-.6.8.6-.8M49 27c1.9-1 2.7-3.2 5.3-7.2M49 27c1.4-2.6 3-4.2 5.3-7.2M40 42.8l1.2-1.6M40 42.8q.8-.9 1.2-1.6M50 29c.7-2.6 2.4-3 5.3-7.2M50 29c1.8-2.7 4-5.5 5.3-7.2M42.3 43q1.3-1.3 2.3-3.2M42.2 43c.9-1 1.4-2.2 2.4-3.2m5.9-8q3.5-5.5 6.5-9m-6.5 9a52 52 0 0 1 6.5-9M45 42.7c4.8-5.8 8.2-9 13-17.8M45 42.7c4.6-5.7 8.3-12 13-17.8M47.8 42.3c4-1.4 3.9-4.7 11.2-15.4M47.8 42.3c3-3.9 4.5-7.6 11.2-15.4m-9 15.7C53.6 39 53.3 35 60 29M50 42.6A89 89 0 0 1 60 29m-6.6 12.5c3.3-3 5.3-5.5 7-9.7m-7 9.7c1.2-2.7 3-5 7-9.7M56.2 41c.5-2 1.8-3.2 4.7-6.4M56.2 41l4.7-6.4" stroke-width=".7"/><path d="M61 34c.5 9.2-12.9 10.3-25 9m0 0c33.7-6.1-.2-32 0-32m0 0c13.8-.2 25.7 14.7 25 23m0 0q0 0 0 0"/></g><g stroke="#FFF" fill="none"><path d="M17.5 19.8q0 0 0 0m0 0q0 0 0 0m-3.7 6.3c4.4-3.4 7-7.4 10.2-9.7m-10.2 9.7c3.2-3 5.2-4.5 10.2-9.7m-11.7 14C16 26.6 19 26 24 19.2m-11.6 11a77 77 0 0 0 11.6-11M16.6 29c1.5-2.2 5.7-4.3 7.2-6.9M16.6 29c1.6-1.2 3-3.4 7.2-6.9" stroke-width="1.4"/><path d="M22.7 15.4c.2 1.8 4.8 14.9-10.9 14m11-14c2-.5 4.2 12.5-11 14m0 0c-1-1.7 1.6-10.6 11-14m-11 14c-1-.6 4.7-9.8 11-14m0 0q0 0 0 0m0 0q0 0 0 0"/></g><g stroke="#FFF" fill="none"><path d="M30.2 25.9q0 0 0 0m0 0q0 0 0 0m-1.9 4.7c.8-1.8 3-4.4 3.3-5m-3.3 5q1.6-2.7 3.3-5m-3 6.4c2.1-2.4 2.9-6.2 5-7.5m-5 7.5c1.4-2.1 2.8-3.9 5-7.5m-4.1 8c2.6-3.8 4-5.6 5.5-8.3m-5.5 8.3c1.9-2.7 3.6-6.2 5.5-8.3m-5.3 9.7c1.3-3.8 3.5-4.8 6.6-10m-6.6 10c1.3-2 2.5-4.9 6.6-10m-5.7 10.6c1-2.5 3.9-5.7 6.6-10m-6.6 10c2.2-2 3-5.1 6.6-10M31.4 35c2.6-3 4.7-7.5 6.6-10m-6.6 10c2-3.8 5.5-7.6 6.6-10m-5.7 10.6c1.8-2.5 3-7.6 7-10.9m-7 10.9c1.8-3.5 4.6-6.5 7-10.9m-6.2 11.4c1.2-2.6 6.3-6.6 7.1-10.8M33.1 36c2.6-2.9 4-6.6 7.1-10.8m-5.7 10.5c1.2-2.8 4.7-7.9 6.6-10m-6.6 10c3-4 4.4-8 6.6-10m-5.8 10.6c1.4-3.7 3.5-6.3 6.6-10m-6.6 10c2.8-3.9 4-7 6.6-10M36.7 36c2-2 2.8-4.7 6-9.2m-6 9.2c2.4-3.1 4.6-7.7 6-9.2m-4.6 9a18 18 0 0 1 5-7.6m-5 7.5c2.2-3.3 4.3-6 5-7.5m-3.6 7.2c1.3-1.9 2.5-5 4.4-6.7m-4.4 6.7c1.6-1.9 2.8-3.7 4.4-6.7m-2.5 5.6a11 11 0 0 1 2.7-4.2m-2.7 4.2q1.4-1.6 2.7-4.2" stroke-width="1.6"/><path d="M44 29.8c.6 3.5-2 4.8-7.8 6.5m0 0c-5.4-.3-8.4-.6-8.2-5.8m0 0c0-1.7 3-6.4 7.8-6.5m0 0c3.6.3 6.7.9 8.2 5.8m0 0q0 0 0 0"/></g><g stroke="#D0CFCE" fill="none"><path d="M49.1 15.4q0 0 0 0m0 0q0 0 0 0m0 1.4q.6-.3.7-.7m-.7.7.7-.7m-.6 2.2q.6-.8 1.4-1.5m-1.4 1.5 1.4-1.5m-1.4 2.9c.3-.6.7-.9 2-2.2m-2 2.2 2-2.2m-2 3.6c.7-1 1.5-1 2.8-2.9m-2.8 2.9q1.5-1.2 2.8-2.9m-2.8 4.3c1.4-.9 1.8-2.3 3.5-3.6m-3.5 3.6c1-.7 1.7-1.7 3.5-3.6M50 23.2l3.4-3.6M50 23.2l3.4-3.6m-3.4 5c.5-1.2 1.2-1.7 4.2-4.3M50 24.6l4.2-4.3m-3.5 5c2.2-1.7 3.1-3.6 4.2-4.3m-4.2 4.3c1.5-1.6 3.5-3.2 4.2-4.3m-3.5 5c2-2.1 3.3-2.6 4.2-4.3M51.4 26c1.7-1.5 2.8-2.8 4.2-4.3m-3.5 5q1.4-2.5 4.2-4.3m-4.2 4.3c1.2-.8 2.2-1.8 4.2-4.3m-3.4 5c.4-.8 1.7-2.3 3.4-3.6M53 27.4l3.4-3.6M53.6 28c1.7-1 2.7-2.8 3.5-3.6M53.6 28l3.5-3.6m-2.8 4.3q.9-1.7 3.5-3.6m-3.5 3.6q1.9-1.7 3.5-3.6m-2 3.5c1-.7 1.6-1.1 2.7-2.8m-2.8 2.8c.7-1 2-2 2.8-2.8m-2 3.5c.6-1 1.8-1.8 2-2.1m-2 2.1q.6-.9 2-2.1m-.6 2.1q.3-.5 1.3-1.4M58 29.4l1.3-1.4m0 1.4.8-.7m-.7.7.7-.7" stroke-width=".7"/><path d="M49.2 15.4c0 1.3-6 12.9 10.9 14m0 0c.4-.9-2.3-7.4-11-14m0 0q0 0 0 0"/></g><path d="M27.1 46.7a19 19 0 0 1 0 8m0 0c.2-.3-2 1.3 2.6 1.4m0 0c3.2-.6 12.1-.7 11.7 0m0 0c-1.8 2 3.6.3 2.3-1.7m0 0c-1 .1-1-6.7 0-7.7M61 34c-.3 7-13.1 10.6-25 9m0 0c-14.1-1.2-26-.1-25-9m0 0c-2-7.3 9.9-21.5 25-23m0 0a25 25 0 0 1 25 23m0 0q0 0 0 0" stroke="#000" stroke-width="2" fill="none"/><path d="M61 34c-.5 7.7-13 7.6-25 9m0 0c-14.1 1.8-26 .4-25-9m0 0c.5-7.5 11.3-22.4 25-23m0 0c14-2 24.7 14.6 25 23m0 0q0 0 0 0" stroke="#000" stroke-width="2" fill="none"/><path d="M22.7 15.4c-2-.6 6.7 14-10.9 14m0 0c.3 0 2.4-9.1 11-14m0 0q0 0 0 0M44 29.8c-1.6 4-3.3 5.8-7.8 6.5m7.8-6.5c.7 2.6-1.2 6-7.8 6.5m0 0c-4.6.7-7.3-1.8-8.2-5.8m8.2 5.8c-4.4-.4-8-1.7-8.2-5.8m0 0c-1.7-3.3 3-4.7 7.8-6.5M28 30.5c-.6-2.9 2.3-4.2 7.8-6.5m0 0c5.1-1 8.8.6 8.2 5.8M35.8 24c3-.8 7.5 4.3 8.2 5.8m0 0q0 0 0 0m0 0q0 0 0 0m5.2-14.4c-2 .4-2.8 14 10.9 14m0 0c.3 1.8-4-9.5-11-14m0 0q0 0 0 0" stroke="#000" stroke-width="2" fill="none"/></svg>