<svg xmlns="http://www.w3.org/2000/svg" stroke-linecap="round" viewBox="0 0 72 72"><g stroke="#EA5A47" fill="none"><path d="M19 21.3q0 0 0 0m0 0q0 0 0 0M17.1 27c4.7-1.3 6.3-5.4 15.7-14M17.2 27c4.6-3.7 10-9.2 15.7-14M15.4 32.6c6.1-5.6 15.7-12.5 21-18.6m-21 18.6c5.3-3.5 8.7-7.7 21-18.6m-22 23.5C24 29 33.7 18 39.8 14.9M14.4 37.4c10.5-8.5 20.7-18.8 25.4-22.6M15.6 40.3c9.3-8.4 19.6-15 27.7-24.6M15.6 40.3c11-8.9 20-17.8 27.7-24.6M16.1 43.8c8.8-6.4 15.7-13.7 30.7-27.1M16.1 43.8c10.6-10.3 23-20.4 30.7-27.1m-29.4 30c8-7 17.8-17.2 33-29.1m-33 29.2c8-7 16.5-15.9 33-29.2M17.8 50.3C28.6 43 38.7 31.4 51.5 20.5M18 50.3C28.4 42 37.7 31.8 51.5 20.5M20 52.5C29 46 33.9 38 53.5 22.8M20 52.6c10-10.1 21.4-18.8 33.5-29.9m-31 31.5c6-5 15.6-11.7 33-29.2m-33 29.2c12.5-11.7 25.6-22 33-29.2M25.3 55.7C32.6 47 43.5 41 57.5 27.2M25.3 55.7a1235 1235 0 0 1 32.2-28.5M28.1 57.3c7.2-5 13.2-12.8 30.7-27.2M28 57.3c8-7.3 14.4-11.8 30.7-27.2M30.8 59c8-7.6 12.6-13.9 27.7-24.5M30.8 58.9c9.9-10.5 21.8-19.3 27.7-24.5M34.3 59.8C40.8 53 49.8 47.4 59 38M34.3 60C43.8 52.4 54 42.5 59 38M40 58.7c7.2-5.6 11.4-9.3 18.7-16.5M40 58.7c6.4-7.1 15.2-13.5 18.7-16.5m-13 15.5c1.8-2.9 4-2.9 8.3-7.3m-8.2 7.3q3.3-2.5 8.2-7.3" stroke-width="1.6"/><path d="M32.3 13c4.7-1 12.3 1.3 16.7 3.8s8.3 6.7 9.8 11.3a28 28 0 0 1-.8 16.5c-2 4.8-6 9.8-10.3 12.4a23 23 0 0 1-15.2 2.6c-5-1-11.3-4.5-14.4-8.4-3-3.8-4.3-9.6-4.1-14.6.1-5 1.5-11.2 5-15.2 3.4-4 12.7-7.5 15.7-8.7s2 1.2 2.2 1.6"/></g><g stroke="#D22F27" fill="none"><path d="M16.4 46.9q0 0 0 0m0 0q0 0 0 0m.3 1.4.5-.9m-.5.9q.4-.5.5-.9m.4 1.4.5-.8m-.5.8q.1-.4.5-.8m.3 1.3.5-.8m-.5.8.5-.8m-.2 2.2 1-1.7m-1 1.7 1-1.7m-.1 2.2 1-1.6m-1 1.6 1-1.6m-.7 3q0-.7 1-1.7m-1 1.7 1-1.7m-.2 2.3 1-1.7m-1 1.7 1-1.7m-.1 2.2 1-1.7m-1 1.7 1-1.7m-.2 2.2 1-1.7m-1 1.7 1-1.7m-.1 2.3 1.6-2.6m-1.6 2.6 1.6-2.6m-.8 3q.6-.6 1.6-2.5m-1.6 2.6 1.6-2.6m-.7 3.1q.6-1.5 1.6-2.5M25 55.8l1.6-2.5m-.8 3c.7-1 1.4-2.8 2.1-3.3m-2 3.3 2-3.3m-1.2 3.9 2-3.4m-2 3.4c.8-1.2 1.2-2.3 2-3.4m-.7 3c.4-.5.8-.7 1.6-2.5M28 56.6c.6-.8 1-1.2 1.6-2.6m-.7 3.1 2.1-3.4m-2 3.4c.5-1 1-1.7 2.1-3.4m-1.3 4c.8-.7 1.4-2.2 2.2-3.5m-2.2 3.4Q31 56 32 54.2m20.7-33q0 0 0 0m0 0q0 0 0 0M31 57.3c.3-1 1.4-2.2 2.1-3.4m-2 3.4 2-3.4M53 22.6l.5-.9m-.5.9.5-.9M32 57.8l2.6-4.2M32 57.8a23 23 0 0 0 2.6-4.2M53.2 24q.2-.6.6-.9m-.6.9.6-.9m-21 35.3c.9-1.8 2-2.9 2.7-4.3m-2.7 4.3q1.6-2.1 2.7-4.3m18-28.8q.5-.4 1.1-1.6m-1 1.6 1-1.6m-21 35.2c1.1-2.4 2.7-4 3.2-5m-3.2 5 3.2-5m17-27.2L55 25m-1 1.7 1-1.7M35 58.6c1.5-1.6 1.9-2.7 3.2-5m-3.2 5c.5-1 1.7-2 3.2-5m16-25.5c.4-.7.8-1 1.6-2.5M54.2 28l1.6-2.5M35.8 59c.8-2.1 3.5-4 4.3-6.8M36 59.1l4.2-6.8m14.4-22.8q1.4-1.5 2.1-3.4m-2.1 3.4 2.1-3.4M37.3 58.8c1.4-2 3.6-4 4.7-7.6m-4.7 7.6c1.6-2.5 2.8-3.9 4.7-7.6m12.8-20.3c.3-1.4 1-2 2.1-3.4m-2.1 3.4 2.1-3.4m-18.3 31c2.1-2.7 3.7-4 4.8-7.6m-4.8 7.6c2-3 3.3-5 4.8-7.6m11.7-18.7q1-1.2 2.1-3.3m-2 3.3 2-3.3M40 58.2c1.2-1.4 1.9-3.3 5.3-8.5M40 58.2q2.6-4.6 5.3-8.5m10.7-17 1.6-2.5M56 32.8l1.6-2.6M41.4 58c2.4-2.8 3.8-6.5 5.8-9.4M41.4 58c1.7-3.5 4.7-6.4 5.8-9.4m8-12.7c1-1.3 1.2-1.7 2.7-4.2m-2.7 4.2q1.6-2.1 2.7-4.2m-15.1 26c4.9-8.5 11.6-15 15.4-24.6M42.8 57.5c4-5.8 7.8-12.8 15.4-24.5m-14 24.2c5.3-7.6 12-16.5 14.3-22.8M44.1 57.2a311 311 0 0 1 14.4-22.8m-13 22.5c2.6-6.2 8-11.5 13.3-21.2M45.5 57c4.7-7.4 9.6-14.8 13.3-21.2M47 56.6c3.8-4.4 4-10.4 11.7-18.6M46.9 56.6c3.4-4.4 3.8-6.8 11.7-18.6m-9.8 17.4c1.6-4.9 3-5.7 9-14.4m-9 14.4c2.6-4.4 6-8.2 9-14.4m-6.5 12.4q4.5-5 5.8-9.3m-5.8 9.3q3-4.2 5.8-9.3" stroke-width=".9"/><path d="M52.5 21A23.3 23.3 0 0 1 32 54m0 0c-7.3 1.2-10-2.6-15.6-7m0 0c6.3 15.7 31.8 16.5 39 1.2m0 0c4.8-10.7 4-19.3-2.8-27.4m0 0q0 0 0 0"/></g><g stroke="#F1B31C" fill="none"><path d="M7.1 42.8q0 0 0 0m0 0q0 0 0 0M5.8 49C8 45.8 7 44 11.9 38.7M5.8 49q2-4 6.1-10.3M7.5 50c2.8-3.5 4.5-5 7.7-12.8M7.5 50q2.4-4.5 7.7-12.8m-6 13.9c.2-2 1.7-3 3.6-6m-3.6 6 3.6-6m-1.4 6.2 3.1-5.2m-3.1 5.2q1.5-2.3 3.1-5.2m-.3 4.5q.4-1.8 2.5-4.3m-2.5 4.3c.6-1.3 1.5-2.3 2.5-4.3m-.3 4.5a8 8 0 0 0 2-3.5m-2 3.5 2-3.5m.2 3.6c1-1.4 1.4-2.5 2-3.4m-2 3.4c1-1 1.7-2.6 2-3.4m.2 3.6c1.4-1.4 1.7-3.1 2.6-4.3m-2.6 4.3 2.6-4.3m-.3 4.5q1.6-3.5 3-5.2m-3 5.2 3-5.2m-.3 4.5c.3-1.3 1.2-2.6 3.1-5.1m-3 5.1c.4-1.2 1-2.2 3-5.1m-.3 4.4c0-.7 1.4-2 3-5.1m-3 5.1c.5-1.3 1.2-2.3 3-5.1m-.3 4.4c1.9-2.6 2.7-4.6 3.6-6m-3.6 6c.5-1.3 1.2-2.2 3.6-6m-.9 5.4q1.9-2.2 3.7-6m-3.7 6c1-1.2 1.3-2.8 3.7-6m-1 5.3L41 41m-4.2 7c1-1.2 1.8-2.7 4.1-6.9m-.8 5.4c.8-1.5 2.2-2.1 3.6-6m-3.6 6a54 54 0 0 1 3.6-6M54 23.2q0 0 0 0m0 0q0 0 0 0M43.3 44.8c1.1-1 1-2.4 3.6-6m-3.6 6a43 43 0 0 1 3.6-6m8.8-14.5.5-.9m-.5.9.5-.9m-9.6 19.9c1.3-1.7 1.4-2.9 2.6-4.3m-2.6 4.3 2.6-4.3m8.2-13.7 1-1.7m-1 1.7 1-1.7m-9 19c.6-2.4 2-3.3 3.5-6m-3.6 6q1.6-2.9 3.6-6m6.8-11.1 1-1.7m-1 1.7 1-1.7M52 41.9c3.3-3.1 6.9-9 11.3-18.8M52.1 41.9c1.8-3.8 4.2-9 11.3-18.8m-7 15.6C58.8 35.6 61 32.9 65 24m-8.7 14.6C59 35.2 61 30.5 65 24m-5 12.2c.6-3.5 4.3-5.4 6.8-11.1m-6.8 11c1.8-2.8 4-7 6.8-11" stroke-width=".6"/><path d="M52.8 22.8c8.8-1.8 13 1 14.2 2.8m-14.2-2.8c5.4-3 13.5-2.2 14.2 2.8m0 0C69 29.1 56.9 38 39.5 46M67 25.6c1.3 5.6-9.6 15-27.5 20.4m0 0c-16.9 5.7-32.7 9-34.2 2.2M39.5 46c-15.3 8-31.1 5.2-34.2 2.2m0 0c-2.7-1 1.8-6 9.3-11.5M5.3 48.2c-1-1 2.4-5 9.3-11.5m0 0v1.5m0-1.5v1.5m0 0c-1.3 1.7-2.2 5.5-3 6m3-6c-.4 3-5.9 3.7-3 6m0 0c2.2 2.8 14.6 1.4 26.6-1.8m-26.7 1.7c2.4 2.6 12.7 5 26.7-1.7m0 0c12.3-4.7 24.4-12.1 21.4-15.9m-21.4 16c11.3-5.8 22.7-12.3 21.4-16m0 0c-1.7-1.9-2.4-3.8-5.8-2.4m5.8 2.4c1.4.7-3.2-3.4-5.8-2.4m0 0-1-1.3m1 1.3-1-1.3"/></g><path d="M17.2 46.6C8 32.4 20.9 15.4 36.8 14.9M17.2 46.6C7 32.3 22.4 16.2 36.8 14.9m0 0c6.7 1.3 16.6 4.3 19.1 13M37 15c7.7-.5 13.6 5.9 19 13m1.7 9.2c-1.7 18.4-18.3 26-33 17.5m0 0c-2.3-.6 0-.2-2-1.4" stroke="#000" stroke-width="2" fill="none"/><path d="M52.8 22.8c7.9.8 11.9-.8 14.2 2.8m0 0c1.6 5.6-11 12.8-27.5 20.4m0 0c-16.6 8-32.8 6-34.2 2.2m0 0c-2.2-2.9 1.5-6.8 9.3-11.5" stroke="#000" stroke-width="2" fill="none"/><path d="M53.8 24c3.8-1.2 3.6.5 5.8 2.5m0 0c-.2 3.8-8.1 12.5-21.4 16m0 0c-12.5 5.8-26.9 5-26.7 1.6m0 0c-1.4-1.2-.6-2 3.2-5.9" stroke="#000" stroke-width="2" fill="none"/></svg>