<?xml version="1.0" standalone="no"?>
<svg xmlns="http://www.w3.org/2000/svg" xmlns:xlink="http://www.w3.org/1999/xlink" width="72" height="72" stroke-linecap="round"><g><path d="M4.404 15.945 C4.404 15.945, 4.404 15.945, 4.404 15.945 M4.404 15.945 C4.404 15.945, 4.404 15.945, 4.404 15.945 M4.823 23.004 C7.541 19.137, 10.676 16.76, 11.462 15.526 M4.823 23.004 C6.899 20.117, 9.777 18.061, 11.462 15.526 M4.578 30.81 C9.911 26.011, 10.942 22.444, 17.857 15.855 M4.578 30.81 C8.802 26.083, 13.22 21.596, 17.857 15.855 M4.998 37.869 C11.379 30.032, 21.346 20.145, 24.916 15.435 M4.998 37.869 C10.191 31.569, 15.485 26.108, 24.916 15.435 M4.753 45.675 C12.406 38.045, 16.712 30.092, 31.31 15.764 M4.753 45.675 C12.123 37.96, 17.744 30.162, 31.31 15.764 M4.508 53.482 C14.317 41.096, 27.757 27.754, 38.369 15.345 M4.508 53.482 C16.422 39.24, 30.463 23.649, 38.369 15.345 M9.575 55.306 C19.88 43.983, 29.484 31.517, 44.764 15.673 M9.575 55.306 C22.339 41.017, 34.881 27.242, 44.764 15.673 M15.97 55.635 C23.837 44.66, 31.946 34.107, 51.158 16.002 M15.97 55.635 C23.451 47.366, 31.462 37.095, 51.158 16.002 M23.029 55.215 C36.022 38.42, 48.267 23.178, 58.217 15.582 M23.029 55.215 C35.336 40.663, 48.552 26.792, 58.217 15.582 M29.423 55.544 C41.533 39.761, 57.238 25.64, 64.612 15.911 M29.423 55.544 C42.441 40.684, 55.407 25.62, 64.612 15.911 M35.818 55.872 C48.641 43.109, 60.987 27.816, 67.687 19.978 M35.818 55.872 C47.408 43.614, 58.189 29.993, 67.687 19.978 M42.877 55.453 C48.92 48.896, 56.472 40.964, 67.442 27.785 M42.877 55.453 C51.223 46.156, 60.035 37.966, 67.442 27.785 M49.271 55.781 C56.859 48.053, 61.662 43.304, 67.861 34.843 M49.271 55.781 C53.101 50.253, 57.36 47.375, 67.861 34.843 M55.666 56.11 C59.61 51.442, 62.423 46.489, 67.617 42.65 M55.666 56.11 C59.372 51.375, 65.482 45.982, 67.617 42.65 M62.061 56.439 C63.389 53.784, 66.095 53.231, 68.036 49.708 M62.061 56.439 C64.044 54.405, 65.427 52.851, 68.036 49.708" stroke="rgb(255, 255, 255)" stroke-width="2.695" fill="none"/><path d="M65.086 55.5 C50.093 54.805, 31.798 54.093, 6.878 55.5 M6.878 55.5 C4.331 56.957, 2.241 53.064, 4 52.623 M4 52.623 C2.613 44.945, 5.278 37.009, 4 17.248 M4 17.248 C4.378 15.932, 6.852 14.424, 6.248 15 M6.248 15 C28.038 15.899, 51.431 14.935, 65.694 15 M65.694 15 C68.689 14.641, 69.112 17.135, 68 17.306 M68 17.306 C66.24 27.879, 66.004 39.337, 68 52.586 M68 52.586 C69.66 54.102, 66.983 56.33, 65.086 55.5 M65.086 55.5 C65.086 55.5, 65.086 55.5, 65.086 55.5" stroke="rgb(255, 255, 255)" stroke-width="1" fill="none"/></g><g><path d="M28.622 28.044 C28.622 28.044, 28.622 28.044, 28.622 28.044 M28.622 28.044 C28.622 28.044, 28.622 28.044, 28.622 28.044 M25.572 33.584 C26.581 31.44, 28.095 30.592, 31.449 28.157 M25.572 33.584 C26.897 31.784, 29.071 30.553, 31.449 28.157 M26.194 35.732 C29.563 32.607, 30.456 30.619, 34.275 28.269 M26.194 35.732 C29.87 32.61, 33.087 29.519, 34.275 28.269 M26.816 37.88 C29.508 33.796, 32.324 31.607, 35.632 29.738 M26.816 37.88 C29.89 35.077, 32.921 32.155, 35.632 29.738 M28.173 39.349 C31.591 36.072, 36.636 31.5, 39.927 28.494 M28.173 39.349 C30.867 36.028, 34.356 33.654, 39.927 28.494 M29.53 40.818 C33.39 36.308, 36.116 35.838, 42.753 28.606 M29.53 40.818 C33.571 37.908, 35.63 34.781, 42.753 28.606 M30.887 42.288 C36.247 38.08, 41.109 32.793, 44.845 29.397 M30.887 42.288 C35.268 38.375, 38.829 33.921, 44.845 29.397 M31.509 44.435 C35.459 39.899, 39 37.64, 46.202 30.866 M31.509 44.435 C36.817 40.683, 41.795 35.754, 46.202 30.866 M32.866 45.905 C37.13 43.931, 37.241 40.561, 46.824 33.014 M32.866 45.905 C36.054 42.393, 39.01 39.746, 46.824 33.014 M34.223 47.374 C38.413 43.997, 40.157 40.237, 46.712 35.84 M34.223 47.374 C39.177 42.495, 43.623 38.585, 46.712 35.84 M35.58 48.843 C37.286 48.007, 38.027 46.032, 42.192 42.737 M35.58 48.843 C36.957 47.618, 38.487 46.078, 42.192 42.737" stroke="rgb(234, 90, 71)" stroke-width="1.612" fill="none"/><path d="M47.064 33.552 C48.007 28.818, 42.507 25.904, 41.179 27.667 M41.179 27.667 C38.116 26.099, 35.354 27.029, 36 30.755 M36 30.755 C35.21 29.94, 34.357 28.437, 30.821 27.667 M30.821 27.667 C26.488 27.552, 23.892 31.902, 24.936 33.552 M24.936 33.552 C24.877 35.994, 23.557 37.351, 26.24 37.242 M26.24 37.242 C26.24 37.243, 26.24 37.243, 26.238 37.244 M26.238 37.244 C29.854 41.101, 33.155 45.779, 36 49.342 M36 49.342 C38.781 45.246, 42.447 40.662, 45.761 37.244 M45.761 37.244 C45.761 37.243, 45.76 37.243, 45.759 37.242 M45.759 37.242 C45.163 36.016, 47.13 34.977, 47.064 33.552 M47.064 33.552 C47.064 33.552, 47.064 33.552, 47.064 33.552" stroke="rgb(234, 90, 71)" stroke-width="1" fill="none"/></g><g><path d="M65.086 55.5 C51.544 56.672, 39.522 56.735, 6.878 55.5 M6.878 55.5 C4.358 56.915, 3.923 52.847, 4 52.623 M4 52.623 C3.214 41.74, 3.24 26.958, 4 17.248 M4 17.248 C4.19 15.201, 4.42 14.581, 6.248 15 M6.248 15 C22.287 13.674, 38.459 13.693, 65.694 15 M65.694 15 C65.617 15.223, 68.28 16.535, 68 17.306 M68 17.306 C67.418 27.854, 66.277 39.725, 68 52.586 M68 52.586 C66.912 53.185, 66.512 54.793, 65.086 55.5 M65.086 55.5 C65.086 55.5, 65.086 55.5, 65.086 55.5" stroke="rgb(0, 0, 0)" stroke-width="2" fill="none"/></g><g><path d="M4.284 16.307 C6.912 19.848, 10.024 23.08, 20.349 31.902" stroke="rgb(0, 0, 0)" stroke-width="2" fill="none"/></g><g><path d="M65.192 15.288 C61.975 19.537, 57.451 26.636, 50.171 30.201" stroke="rgb(0, 0, 0)" stroke-width="2" fill="none"/></g><g><path d="M47.064 33.552 C49.062 28.55, 42.663 25.676, 41.179 27.667 M47.064 33.552 C48.073 28.116, 42.34 29.378, 41.179 27.667 M41.179 27.667 C40.166 28.015, 35.287 27.435, 36 30.755 M41.179 27.667 C39.27 27.068, 37.329 27.418, 36 30.755 M36 30.755 C35.655 28.906, 32.024 26.374, 30.821 27.667 M36 30.755 C33.832 30.191, 33.27 26.083, 30.821 27.667 M30.821 27.667 C27.811 27.676, 23.436 29.197, 24.936 33.552 M30.821 27.667 C29.592 28.335, 25.366 30.352, 24.936 33.552 M24.936 33.552 C24.633 34.662, 25.995 34.681, 26.24 37.242 M24.936 33.552 C27.01 34.211, 23.706 36.736, 26.24 37.242 M26.24 37.242 C26.24 37.243, 26.239 37.244, 26.238 37.244 M26.24 37.242 C26.24 37.243, 26.24 37.243, 26.238 37.244 M26.238 37.244 C31.458 42.124, 32.94 45.271, 36 49.342 M26.238 37.244 C29.457 40.06, 31.021 44.278, 36 49.342 M36 49.342 C39.182 44.331, 41.625 41.104, 45.761 37.244 M36 49.342 C38.941 46.445, 41.433 43.721, 45.761 37.244 M45.761 37.244 C45.761 37.243, 45.761 37.243, 45.759 37.242 M45.761 37.244 C45.761 37.243, 45.76 37.243, 45.759 37.242 M45.759 37.242 C45.228 37.177, 46.756 33.436, 47.064 33.552 M45.759 37.242 C47.055 36.498, 45.157 32.888, 47.064 33.552 M47.064 33.552 C47.064 33.552, 47.064 33.552, 47.064 33.552 M47.064 33.552 C47.064 33.552, 47.064 33.552, 47.064 33.552" stroke="rgb(0, 0, 0)" stroke-width="2" fill="none"/></g></svg>